<?xml version="1.0" encoding="utf-8"?>
<!-- Generator: Adobe Illustrator 26.0.1, SVG Export Plug-In . SVG Version: 6.00 Build 0)  -->
<svg version="1.1" id="Layer_1" xmlns="http://www.w3.org/2000/svg" xmlns:xlink="http://www.w3.org/1999/xlink" x="0px" y="0px"
	 viewBox="0 0 800 261.69" style="enable-background:new 0 0 800 261.69;" xml:space="preserve">
<style type="text/css">
	.st0{fill:#FFFFFF;}
	.st1{font-family:'MyriadPro-Regular';}
	.st2{font-size:69.1909px;}
	.st3{font-family:'PPNeueMontreal-Medium';}
	.st4{font-size:115.6165px;}
	.st5{fill:#FFFFFF;stroke:#000000;stroke-miterlimit:10;}
</style>
<g>
	<path d="M800,226.32c0,19.53-15.83,35.37-35.36,35.37H35.36C15.84,261.69,0,245.85,0,226.32V35.36C0,15.84,15.84,0,35.36,0h729.28
		C784.17,0,800,15.84,800,35.36L800,226.32L800,226.32L800,226.32z"/>
	<g>
		<text transform="matrix(1 0 0 1 259.3022 89.9363)" class="st0 st1 st2">Download on the</text>
		<text transform="matrix(1 0 0 1 256.9985 206.362)" class="st0 st3 st4">App Store</text>
	</g>
	<g>
		<path class="st5" d="M197.24,136.76c0.27,28.64,25.12,38.17,25.4,38.29c-0.21,0.67-3.97,13.58-13.1,26.92
			c-7.89,11.53-16.07,23.01-28.97,23.25c-12.67,0.23-16.75-7.51-31.23-7.51c-14.48,0-19.01,7.28-31.01,7.75
			c-12.45,0.47-21.93-12.47-29.88-23.95c-16.25-23.5-28.67-66.39-11.99-95.35c8.28-14.38,23.09-23.49,39.16-23.72
			c12.22-0.23,23.76,8.22,31.23,8.22c7.47,0,21.49-10.17,36.23-8.68c6.17,0.26,23.49,2.49,34.61,18.77
			C216.8,101.31,197.03,112.82,197.24,136.76 M173.43,66.44c6.61-8,11.06-19.14,9.84-30.22c-9.53,0.38-21.04,6.35-27.88,14.34
			c-6.12,7.08-11.49,18.41-10.04,29.27C155.97,80.66,166.82,74.44,173.43,66.44"/>
	</g>
</g>
</svg>
