<?xml version="1.0" encoding="utf-8"?>
<!-- Generator: Adobe Illustrator 26.0.1, SVG Export Plug-In . SVG Version: 6.00 Build 0)  -->
<svg version="1.1" id="Layer_1" xmlns="http://www.w3.org/2000/svg" xmlns:xlink="http://www.w3.org/1999/xlink" x="0px" y="0px"
	 viewBox="0 0 800 261.7" style="enable-background:new 0 0 800 261.7;" xml:space="preserve">
<style type="text/css">
	
		.st0{clip-path:url(#SVGID_00000065763349396640784960000010741015238687387012_);fill:url(#SVGID_00000067939271942582574130000011585810767165991350_);}
	
		.st1{clip-path:url(#SVGID_00000016760387390975005640000017414718870660603286_);fill:url(#SVGID_00000132796246024067495010000005565224827152997027_);}
	
		.st2{clip-path:url(#SVGID_00000034787014783126145510000001413344202450387331_);fill:url(#SVGID_00000060738779667750129970000013861259736203599749_);}
	
		.st3{clip-path:url(#SVGID_00000001661373887939065090000008557802316516398995_);fill:url(#SVGID_00000121255692951223148450000011452454897539455879_);}
	.st4{fill:#F9F9F9;}
	.st5{fill:#F9F9FA;}
</style>
<path d="M800,226.3c0,19.5-15.8,35.4-35.4,35.4H35.4C15.8,261.7,0,245.9,0,226.3v-191C0,15.8,15.8,0,35.4,0h729.3
	C784.2,0,800,15.8,800,35.4L800,226.3L800,226.3L800,226.3z"/>
<g>
	<defs>
		<path id="SVGID_1_" d="M173.4,115.2l-36.1-20.8c0,0-65.7-37.9-69.6-40.2C63.9,52,60,53.3,60,58v163.7c0,3.5,2.8,5,6.1,3.1
			c3.4-1.9,71.2-41.1,71.2-41.1l36.1-20.8c0,0,30.6-17.7,34.7-20c4.1-2.4,3.7-5.6,0.2-7.4C204.9,133.5,173.4,115.2,173.4,115.2z"/>
	</defs>
	<clipPath id="SVGID_00000176045307091415425570000017524119117381829517_">
		<use xlink:href="#SVGID_1_"  style="overflow:visible;"/>
	</clipPath>
	
		<linearGradient id="SVGID_00000035504823559923844080000006581635540418746283_" gradientUnits="userSpaceOnUse" x1="1363.4552" y1="-667.4969" x2="1363.4552" y2="-554.194" gradientTransform="matrix(1.5641 0 0 1.5641 -2027.8766 1094.4049)">
		<stop  offset="0" style="stop-color:#257CB0"/>
		<stop  offset="0.286" style="stop-color:#4A93B5"/>
		<stop  offset="0.767" style="stop-color:#78BCBB"/>
		<stop  offset="1" style="stop-color:#89CFBD"/>
	</linearGradient>
	
		<path style="clip-path:url(#SVGID_00000176045307091415425570000017524119117381829517_);fill:url(#SVGID_00000035504823559923844080000006581635540418746283_);" d="
		M60,50.4v177.2l89.4-88.6L60,50.4z"/>
</g>
<g>
	<defs>
		<path id="SVGID_00000128455478460187792250000003383303594181285265_" d="M173.4,115.2l-36.1-20.8c0,0-65.7-37.9-69.6-40.2
			C63.9,52,60,53.3,60,58v163.7c0,3.5,2.8,5,6.1,3.1c3.4-1.9,71.2-41.1,71.2-41.1l36.1-20.8c0,0,30.6-17.7,34.7-20
			c4.1-2.4,3.7-5.6,0.2-7.4C204.9,133.5,173.4,115.2,173.4,115.2z"/>
	</defs>
	<clipPath id="SVGID_00000173853468280095758070000008388978946451202735_">
		<use xlink:href="#SVGID_00000128455478460187792250000003383303594181285265_"  style="overflow:visible;"/>
	</clipPath>
	
		<linearGradient id="SVGID_00000011031723438729510200000007783975522616041383_" gradientUnits="userSpaceOnUse" x1="1334.8882" y1="-639.377" x2="1407.3672" y2="-639.377" gradientTransform="matrix(1.5641 0 0 1.5641 -2027.8766 1094.4049)">
		<stop  offset="0" style="stop-color:#52C1AD"/>
		<stop  offset="1" style="stop-color:#DEE89A"/>
	</linearGradient>
	
		<path style="clip-path:url(#SVGID_00000173853468280095758070000008388978946451202735_);fill:url(#SVGID_00000011031723438729510200000007783975522616041383_);" d="
		M173.4,115.2l-36.1-20.8L60,49.7v0.6l89.4,88.6L173.4,115.2z"/>
</g>
<g>
	<defs>
		<path id="SVGID_00000067934455133154162080000006659337708073043590_" d="M173.4,115.2l-36.1-20.8c0,0-65.7-37.9-69.6-40.2
			C63.9,52,60,53.3,60,58v163.7c0,3.5,2.8,5,6.1,3.1c3.4-1.9,71.2-41.1,71.2-41.1l36.1-20.8c0,0,30.6-17.7,34.7-20
			c4.1-2.4,3.7-5.6,0.2-7.4C204.9,133.5,173.4,115.2,173.4,115.2z"/>
	</defs>
	<clipPath id="SVGID_00000049935104062469581310000007568799141502883738_">
		<use xlink:href="#SVGID_00000067934455133154162080000006659337708073043590_"  style="overflow:visible;"/>
	</clipPath>
	
		<linearGradient id="SVGID_00000050649564433245562340000015729414676423946415_" gradientUnits="userSpaceOnUse" x1="1371.1272" y1="-610.845" x2="1371.1272" y2="-553.7819" gradientTransform="matrix(1.5641 0 0 1.5641 -2027.8766 1094.4049)">
		<stop  offset="0" style="stop-color:#EC413D"/>
		<stop  offset="0.167" style="stop-color:#DA4452"/>
		<stop  offset="0.575" style="stop-color:#B0487A"/>
		<stop  offset="0.862" style="stop-color:#954A92"/>
		<stop  offset="1" style="stop-color:#8A4A9D"/>
	</linearGradient>
	
		<path style="clip-path:url(#SVGID_00000049935104062469581310000007568799141502883738_);fill:url(#SVGID_00000050649564433245562340000015729414676423946415_);" d="
		M60,227.6v0.6l77.3-44.6l36.1-20.8l-24-23.8L60,227.6z"/>
</g>
<g>
	<defs>
		<path id="SVGID_00000180347592037941138870000002930392661502738090_" d="M173.4,115.2l-36.1-20.8c0,0-65.7-37.9-69.6-40.2
			C63.9,52,60,53.3,60,58v163.7c0,3.5,2.8,5,6.1,3.1c3.4-1.9,71.2-41.1,71.2-41.1l36.1-20.8c0,0,30.6-17.7,34.7-20
			c4.1-2.4,3.7-5.6,0.2-7.4C204.9,133.5,173.4,115.2,173.4,115.2z"/>
	</defs>
	<clipPath id="SVGID_00000006696773791786186300000017162961154240917938_">
		<use xlink:href="#SVGID_00000180347592037941138870000002930392661502738090_"  style="overflow:visible;"/>
	</clipPath>
	
		<linearGradient id="SVGID_00000029046222911383964420000010400963317765163915_" gradientUnits="userSpaceOnUse" x1="1412.8727" y1="-626.062" x2="1412.8727" y2="-595.6299" gradientTransform="matrix(1.5641 0 0 1.5641 -2027.8766 1094.4049)">
		<stop  offset="0" style="stop-color:#F58879"/>
		<stop  offset="0.119" style="stop-color:#F69079"/>
		<stop  offset="0.713" style="stop-color:#FCB877"/>
		<stop  offset="1" style="stop-color:#FEC874"/>
	</linearGradient>
	
		<path style="clip-path:url(#SVGID_00000006696773791786186300000017162961154240917938_);fill:url(#SVGID_00000029046222911383964420000010400963317765163915_);" d="
		M173.4,115.2l-24,23.8l24,23.8l41.2-23.8L173.4,115.2z"/>
</g>
<path class="st4" d="M622.6,173.6c-3.4,0-6.4-0.6-9.2-1.9c-2.8-1.2-5.1-3.1-7-5.7h-0.6c0.4,3,0.6,5.9,0.6,8.6v21.2h-7.8v-74.7h6.3
	l1.1,7.1h0.4c2-2.8,4.3-4.9,7-6.1c2.7-1.3,5.7-1.9,9.2-1.9c6.8,0,12.1,2.3,15.8,7c3.7,4.7,5.6,11.2,5.6,19.7c0,8.5-1.9,15-5.7,19.7
	C634.6,171.3,629.3,173.6,622.6,173.6L622.6,173.6z M621.5,126.8c-5.3,0-9.1,1.5-11.4,4.4c-2.4,2.9-3.6,7.6-3.6,13.9v1.7
	c0,7.2,1.2,12.4,3.6,15.5c2.4,3.1,6.3,4.7,11.6,4.7c4.5,0,7.9-1.8,10.5-5.4c2.5-3.6,3.8-8.6,3.8-14.9c0-6.4-1.3-11.4-3.8-14.8
	C629.6,128.6,626,126.8,621.5,126.8z M662.1,172.7h-7.8V99.5h7.8V172.7z M706.9,172.7l-1.6-7.3H705c-2.6,3.2-5.1,5.4-7.7,6.6
	c-2.6,1.1-5.7,1.7-9.6,1.7c-5.1,0-9.1-1.3-12-3.9c-2.9-2.6-4.3-6.4-4.3-11.2c0-10.4,8.3-15.9,25-16.4l8.7-0.3v-3.2c0-4-0.9-7-2.6-9
	c-1.7-1.9-4.5-2.9-8.3-2.9c-4.3,0-9.2,1.3-14.6,3.9l-2.4-6c2.5-1.4,5.3-2.5,8.3-3.2c3-0.8,6.1-1.2,9.1-1.2c6.1,0,10.7,1.4,13.7,4.1
	c3,2.7,4.4,7.1,4.4,13.1v35.2L706.9,172.7L706.9,172.7L706.9,172.7z M689.3,167.2c4.9,0,8.7-1.3,11.4-4c2.8-2.7,4.2-6.4,4.2-11.2
	v-4.7l-7.8,0.3c-6.2,0.2-10.7,1.2-13.4,2.9c-2.7,1.7-4.1,4.4-4.1,8c0,2.8,0.9,5,2.6,6.4C683.8,166.5,686.2,167.2,689.3,167.2
	L689.3,167.2z M717.3,121.2h8.4l11.3,29.4c2.5,6.7,4,11.6,4.6,14.5h0.4c0.4-1.6,1.3-4.3,2.6-8.2c1.3-3.9,5.6-15.8,12.8-35.7h8.4
	l-22.2,58.7c-2.2,5.8-4.8,9.9-7.7,12.3c-2.9,2.4-6.5,3.6-10.8,3.6c-2.4,0-4.7-0.3-7.1-0.8v-6.3c1.7,0.4,3.7,0.6,5.8,0.6
	c5.4,0,9.2-3,11.5-9l2.9-7.3C738,173,717.3,121.2,717.3,121.2z M478,125.9c2.5,2.1,7.7,6.4,7.7,14.6c0,8-4.5,11.8-9.1,15.3
	c-1.4,1.4-3,2.9-3,5.3c0,2.4,1.6,3.7,2.8,4.6l3.9,3c4.7,4,9,7.7,9,15.1c0,10.1-9.8,20.4-28.3,20.4c-15.6,0-23.2-7.4-23.2-15.4
	c0-3.9,1.9-9.4,8.3-13.2c6.7-4.1,15.7-4.6,20.6-5c-1.5-1.9-3.2-4-3.2-7.3c0-1.8,0.5-2.9,1.1-4.2c-1.2,0.1-2.4,0.2-3.5,0.2
	c-11.4,0-17.9-8.5-17.9-16.9c0-5,2.3-10.5,6.9-14.4c6.1-5.1,13.5-5.9,19.3-5.9h22.2l-6.9,3.9L478,125.9L478,125.9L478,125.9z
	 M470.3,173.8c-0.9-0.1-1.4-0.1-2.5-0.1c-1,0-6.8,0.2-11.3,1.7c-2.4,0.9-9.3,3.4-9.3,11.1c0,7.6,7.4,13.2,19,13.2
	c10.3,0,15.8-5,15.8-11.6C482.1,182.5,478.5,179.6,470.3,173.8L470.3,173.8z M473.5,153.3c2.5-2.5,2.7-5.9,2.7-7.9
	c0-7.8-4.6-19.8-13.6-19.8c-2.8,0-5.8,1.4-7.5,3.6c-1.8,2.3-2.4,5.2-2.4,8c0,7.2,4.2,19.2,13.5,19.2
	C468.8,156.3,471.7,155,473.5,153.3L473.5,153.3z M410.1,172.1c-17.1,0-26.3-13.3-26.3-25.4c0-14.1,11.5-26.1,27.9-26.1
	c15.8,0,25.7,12.4,25.7,25.4C437.5,158.6,427.7,172.1,410.1,172.1L410.1,172.1z M423.6,163.4c2.6-3.4,3.2-7.8,3.2-12
	c0-9.5-4.5-27.6-17.9-27.6c-3.6,0-7.1,1.4-9.7,3.7c-4.2,3.8-5,8.5-5,13.1c0,10.6,5.3,28.2,18.3,28.2
	C416.8,168.8,421.1,166.8,423.6,163.4L423.6,163.4z M351.8,172.1c-17.1,0-26.3-13.3-26.3-25.4c0-14.1,11.5-26.1,27.9-26.1
	c15.8,0,25.7,12.4,25.7,25.4C379.1,158.6,369.3,172.1,351.8,172.1z M365.3,163.4c2.6-3.4,3.2-7.8,3.2-12c0-9.5-4.5-27.6-17.9-27.6
	c-3.5,0-7.1,1.4-9.7,3.7c-4.2,3.8-5,8.5-5,13.1c0,10.6,5.3,28.2,18.3,28.2C358.5,168.8,362.8,166.8,365.3,163.4z M317.3,170.4
	l-15.5,3.6c-6.3,1-11.9,1.8-17.9,1.8c-29.9,0-41.2-22-41.2-39.2c0-21,16.1-40.5,43.7-40.5c5.8,0,11.5,0.9,16.6,2.3
	c8.1,2.3,11.9,5.1,14.3,6.7l-9,8.5l-3.8,0.9l2.7-4.3c-3.7-3.6-10.4-10.2-23.2-10.2c-17.1,0-30,13-30,31.9
	c0,20.3,14.7,39.5,38.3,39.5c6.9,0,10.5-1.4,13.7-2.7v-17.4l-16.3,0.9l8.7-4.7h22.9l-2.8,2.7c-0.8,0.7-0.9,0.9-1.1,1.7
	c-0.1,1-0.2,4.1-0.2,5.2L317.3,170.4L317.3,170.4L317.3,170.4z"/>
<path class="st4" d="M512.2,167.3c-3.6-0.3-4.3-1-4.3-5.2v-61.2c0-0.2,0-0.5,0.1-0.7c0.4-3.8,1.5-4.4,4.9-6.4h-15.5l-8.1,3.9h8.3v0
	l0,0v66.8c0,2.2-0.4,2.5-2.9,5.7h19.2l4-2.4C515.9,167.6,514,167.5,512.2,167.3L512.2,167.3z M556.2,168.3c-1.2,0.6-2.4,1.4-3.5,1.9
	c-3.6,1.6-7.2,2-10.4,2c-3.4,0-8.8-0.2-14.3-4.2c-7.6-5.4-11-14.6-11-22.7c0-16.7,13.5-24.8,24.6-24.8c3.9,0,7.9,1,11.1,3
	c5.4,3.5,6.8,8.2,7.5,10.6L535,144.4l-8.3,0.6c2.7,13.6,11.9,21.6,22.1,21.6c5.5,0,9.5-1.9,13.1-3.8L556.2,168.3L556.2,168.3z
	 M546.1,136.2c2-0.7,3.1-1.4,3.1-2.9c0-4.3-4.8-9.2-10.6-9.2c-4.3,0-12.4,3.3-12.4,14.9c0,1.8,0.2,3.8,0.3,5.7L546.1,136.2
	L546.1,136.2z M566.6,121.3v7.1h-0.9v-7.1h-2.3v-0.7h5.6v0.7H566.6L566.6,121.3z M576.3,128.4v-7.2h0l-2.2,7.2h-0.7l-2.2-7.2h0v7.2
	h-0.8v-7.8h1.3l2,6.3h0l2-6.3h1.4v7.8H576.3L576.3,128.4z"/>
<path class="st5" d="M264.3,75.1h-5.4c0-0.7-0.5-2.8-1.5-6.3h-7.8c-1.1,3.4-1.6,5.5-1.6,6.3H243c0-0.4,1.3-4,3.9-10.8
	c2.6-6.7,3.9-10.4,3.9-11.1h6.4c0,0.6,1.2,4.3,3.6,11C263.1,70.9,264.3,74.5,264.3,75.1z M256.5,65.6c-1.9-5.8-2.9-8.9-2.9-9.4h-0.3
	c0,0.4-1,3.6-3,9.4C250.4,65.6,256.5,65.6,256.5,65.6z M285.9,75.1h-4.1c0-0.5-1.5-2.9-4.6-7.3c-3.2-4.6-5.1-7.8-5.5-9.5h-0.3
	c0.3,2.5,0.4,4.7,0.4,6.7c0,2.8,0.1,6.1,0.2,10.1h-4.1c0.2-3.5,0.3-7.3,0.3-11.4c0-4.1-0.1-7.6-0.3-10.4h5c0,0.6,1.4,3,4.1,7.1
	c2.9,4.4,4.6,7.4,5.1,9h0.3c-0.3-2.5-0.4-4.7-0.4-6.7c0-3-0.1-6.1-0.2-9.3h4.2c-0.2,2.8-0.2,6.3-0.2,10.4
	C285.7,67.9,285.8,71.7,285.9,75.1z M310.3,63.4c0,3.2-1,6-3.1,8.3c-2,2.4-4.9,3.6-8.6,3.6c-1.7,0-3.9-0.1-6.9-0.2
	c0.1-3.4,0.2-7.2,0.2-11.4c0-4.1-0.1-7.6-0.2-10.4h2.9c0.5,0,1.2,0,2.2-0.1c1,0,1.6-0.1,1.9-0.1c4,0,7,1,8.8,3
	C309.4,58.2,310.3,60.6,310.3,63.4z M305.7,64.1c0-2.2-0.6-4-1.9-5.4c-1.3-1.5-3.2-2.2-5.7-2.2c-0.5,0-1.1,0.1-2,0.2
	c0.1,2.2,0.2,4.6,0.2,7c0,2.7,0.1,5.3,0.2,8c0.7,0.1,1.5,0.2,2.2,0.2c2.4,0,4.2-0.7,5.4-2.2C305.1,68.1,305.7,66.3,305.7,64.1
	L305.7,64.1z M332.7,75.1h-5c-1.3-4-2.3-6.4-3-7.3c-0.7-0.9-1.8-1.4-3.4-1.4c-0.7,0-1.3,0-1.9,0c0,2.9,0,5.8,0.2,8.7H315
	c0.1-3.4,0.2-7.2,0.2-11.4c0-4.1-0.1-7.6-0.2-10.4h2.9c0.3,0,1,0,2.1-0.1c1.1,0,2.1-0.1,3-0.1c5.1,0,7.7,1.8,7.7,5.3
	c0,2.8-1.5,4.7-4.4,5.8v0.3c1.1,0.3,2.1,1.2,3,2.6C330.1,68.6,331.3,71.2,332.7,75.1z M326.4,59.6c0-2.2-1.4-3.3-4.3-3.3
	c-1.1,0-2,0.1-2.8,0.2c0.1,1.7,0.2,4,0.2,6.8c0.6,0,1.1,0,1.6,0C324.6,63.4,326.4,62.1,326.4,59.6z M356.8,63.8
	c0,3.4-1.1,6.3-3.2,8.6c-2.1,2.3-4.7,3.4-7.8,3.4c-3,0-5.4-1-7.4-3.1c-2-2.1-3-4.7-3-7.9c0-3.4,1.1-6.3,3.2-8.6
	c2.1-2.3,4.7-3.4,7.8-3.4c3,0,5.4,1,7.4,3.1C355.8,57.9,356.8,60.5,356.8,63.8z M352.2,64.2c0-2.3-0.6-4.2-1.8-5.7
	c-1.2-1.5-2.7-2.2-4.4-2.2c-1.6,0-3,0.7-4.2,2.2c-1.1,1.5-1.7,3.3-1.7,5.6c0,2.3,0.6,4.2,1.8,5.7c1.2,1.5,2.7,2.2,4.4,2.2
	c1.6,0,3-0.7,4.2-2.2C351.6,68.3,352.2,66.5,352.2,64.2L352.2,64.2z M366.3,75.1h-4.8c0.1-3.5,0.2-7.3,0.2-11.4
	c0-4.1-0.1-7.6-0.2-10.4h4.8c-0.1,2.8-0.2,6.3-0.2,10.4C366.1,67.9,366.2,71.7,366.3,75.1z M390.7,63.4c0,3.2-1,6-3.1,8.3
	c-2,2.4-4.9,3.6-8.6,3.6c-1.7,0-3.9-0.1-6.9-0.2c0.1-3.4,0.2-7.2,0.2-11.4c0-4.1-0.1-7.6-0.2-10.4h2.9c0.5,0,1.2,0,2.2-0.1
	c1,0,1.6-0.1,1.9-0.1c4,0,7,1,8.8,3C389.8,58.2,390.7,60.6,390.7,63.4z M386.1,64.1c0-2.2-0.6-4-1.9-5.4c-1.3-1.5-3.2-2.2-5.7-2.2
	c-0.5,0-1.1,0.1-2,0.2c0.1,2.2,0.2,4.6,0.2,7c0,2.7,0.1,5.3,0.2,8c0.7,0.1,1.5,0.2,2.2,0.2c2.4,0,4.2-0.7,5.4-2.2
	C385.5,68.1,386.1,66.3,386.1,64.1z M423,75.1h-5.4c0-0.7-0.5-2.8-1.5-6.3h-7.8c-1.1,3.4-1.6,5.5-1.6,6.3h-5.1c0-0.4,1.3-4,3.9-10.8
	c2.6-6.7,3.9-10.4,3.9-11.1h6.4c0,0.6,1.2,4.3,3.6,11C421.8,70.9,423,74.5,423,75.1L423,75.1z M415.2,65.6c-1.9-5.8-2.9-8.9-2.9-9.4
	h-0.3c0,0.4-1,3.6-3,9.4C409.1,65.6,415.2,65.6,415.2,65.6z M442.6,59c0,2.7-1,4.7-3,5.9c-2,1.3-4.4,1.9-7.3,1.9c-0.5,0-0.9,0-1.1,0
	c0,2.1,0.1,4.9,0.2,8.3h-4.7c0.1-3.2,0.2-7.1,0.2-11.4c0-4-0.1-7.5-0.2-10.4h2.9c0.4,0,1.2,0,2.4-0.1c1.2,0,2.2-0.1,3.1-0.1
	c2.1,0,3.9,0.5,5.4,1.4C441.8,55.5,442.6,57,442.6,59z M438.2,59.9c0-2.4-1.6-3.6-4.8-3.6c-0.8,0-1.6,0.1-2.5,0.3
	c0.1,2.1,0.2,4.5,0.2,7.2c0.3,0,0.6,0,1,0C436.2,63.8,438.2,62.5,438.2,59.9z M462.7,59c0,2.7-1,4.7-3,5.9c-2,1.3-4.4,1.9-7.3,1.9
	c-0.5,0-0.9,0-1.1,0c0,2.1,0.1,4.9,0.2,8.3h-4.7c0.1-3.2,0.2-7.1,0.2-11.4c0-4-0.1-7.5-0.2-10.4h2.9c0.4,0,1.2,0,2.4-0.1
	c1.2,0,2.2-0.1,3.1-0.1c2.1,0,3.9,0.5,5.4,1.4C462,55.5,462.7,57,462.7,59L462.7,59z M458.4,59.9c0-2.4-1.6-3.6-4.8-3.6
	c-0.8,0-1.6,0.1-2.5,0.3c0.1,2.1,0.2,4.5,0.2,7.2c0.3,0,0.6,0,1,0C456.3,63.8,458.4,62.5,458.4,59.9z M495.7,63.8
	c0,3.4-1.1,6.3-3.2,8.6c-2.1,2.3-4.7,3.4-7.8,3.4c-3,0-5.4-1-7.4-3.1c-2-2.1-3-4.7-3-7.9c0-3.4,1.1-6.3,3.2-8.6
	c2.1-2.3,4.7-3.4,7.8-3.4c3,0,5.4,1,7.4,3.1C494.7,57.9,495.7,60.5,495.7,63.8z M491,64.2c0-2.3-0.6-4.2-1.8-5.7
	c-1.2-1.5-2.7-2.2-4.4-2.2c-1.6,0-3,0.7-4.2,2.2c-1.1,1.5-1.7,3.3-1.7,5.6c0,2.3,0.6,4.2,1.8,5.7c1.2,1.5,2.7,2.2,4.4,2.2
	c1.6,0,3-0.7,4.2-2.2C490.5,68.3,491,66.5,491,64.2z M518.4,75.1h-4.1c0-0.5-1.5-2.9-4.6-7.3c-3.2-4.6-5.1-7.8-5.5-9.5h-0.3
	c0.3,2.5,0.4,4.7,0.4,6.7c0,2.8,0.1,6.1,0.2,10.1h-4.1c0.2-3.5,0.3-7.3,0.3-11.4c0-4.1-0.1-7.6-0.3-10.4h5c0,0.6,1.4,3,4.1,7.1
	c2.9,4.4,4.6,7.4,5.1,9h0.3c-0.3-2.5-0.4-4.7-0.4-6.7c0-3-0.1-6.1-0.2-9.3h4.2c-0.2,2.8-0.2,6.3-0.2,10.4
	C518.2,67.9,518.3,71.7,518.4,75.1z"/>
</svg>
