<?xml version="1.0" encoding="utf-8"?>
<!-- Generator: Adobe Illustrator 26.0.1, SVG Export Plug-In . SVG Version: 6.00 Build 0)  -->
<svg version="1.1" id="Layer_1" xmlns="http://www.w3.org/2000/svg" xmlns:xlink="http://www.w3.org/1999/xlink" x="0px" y="0px"
	 viewBox="0 0 229.05 60.84" style="enable-background:new 0 0 229.05 60.84;" xml:space="preserve">
<style type="text/css">
	.st0{fill:#176BEF;}
	.st1{fill:#FF3E30;}
	.st2{fill:#F7B529;}
</style>
<g>
	<path class="st0" d="M44.8,8.71l-6.2,6.13c-3.93-4.15-8.5-6.23-13.73-6.23c-4.56,0-8.37,1.51-11.45,4.53
		c-3.08,3.02-4.61,6.69-4.61,11.01c0,4.47,1.6,8.25,4.79,11.36c3.19,3.1,7.13,4.66,11.81,4.66c3.04,0,5.61-0.64,7.7-1.92
		c2.09-1.28,3.77-3.28,5.05-6.01h-13.4v-8.27h23.28l0.06,1.95c0,4.05-1.05,7.89-3.15,11.51c-2.1,3.63-4.81,6.4-8.15,8.3
		c-3.33,1.91-7.25,2.86-11.73,2.86c-4.8,0-9.09-1.04-12.85-3.13c-3.77-2.09-6.74-5.06-8.93-8.92C1.1,32.7,0,28.53,0,24.07
		c0-6.12,2.02-11.45,6.07-15.98C10.87,2.7,17.12,0,24.82,0c4.03,0,7.79,0.74,11.29,2.23C39.07,3.49,41.97,5.65,44.8,8.71z"/>
	<path class="st1" d="M71.32,12.33c3.23,0,6.27,0.81,9.11,2.42s5.06,3.81,6.65,6.58c1.59,2.77,2.39,5.76,2.39,8.97
		c0,3.23-0.8,6.25-2.41,9.06s-3.79,5.01-6.56,6.59c-2.77,1.58-5.82,2.38-9.16,2.38c-4.91,0-9.1-1.75-12.57-5.24
		c-3.47-3.49-5.21-7.73-5.21-12.73c0-5.35,1.96-9.8,5.88-13.37C62.9,13.88,66.85,12.33,71.32,12.33z M71.46,20.42
		c-2.67,0-4.89,0.93-6.67,2.78c-1.78,1.86-2.66,4.23-2.66,7.13c0,2.98,0.88,5.39,2.63,7.24c1.75,1.85,3.98,2.77,6.67,2.77
		c2.69,0,4.93-0.93,6.71-2.8c1.79-1.87,2.68-4.27,2.68-7.2s-0.88-5.32-2.63-7.16C76.44,21.33,74.19,20.42,71.46,20.42z"/>
	<path class="st2" d="M112.56,12.33c3.23,0,6.27,0.81,9.11,2.42s5.06,3.81,6.65,6.58c1.59,2.77,2.39,5.76,2.39,8.97
		c0,3.23-0.8,6.25-2.41,9.06s-3.79,5.01-6.56,6.59c-2.77,1.58-5.82,2.38-9.16,2.38c-4.91,0-9.1-1.75-12.57-5.24
		c-3.47-3.49-5.21-7.73-5.21-12.73c0-5.35,1.96-9.8,5.88-13.37C104.14,13.88,108.1,12.33,112.56,12.33z M112.71,20.42
		c-2.67,0-4.89,0.93-6.67,2.78c-1.78,1.86-2.66,4.23-2.66,7.13c0,2.98,0.88,5.39,2.63,7.24c1.75,1.85,3.98,2.77,6.67,2.77
		c2.69,0,4.93-0.93,6.71-2.8c1.79-1.87,2.68-4.27,2.68-7.2s-0.88-5.32-2.63-7.16C117.68,21.33,115.44,20.42,112.71,20.42z"/>
	<path class="st0" d="M163.03,13.21h8.56v29.32c0,5.79-1.16,10.05-3.49,12.77c-3.12,3.69-7.83,5.54-14.13,5.54
		c-3.36,0-6.18-0.42-8.46-1.26c-2.29-0.84-4.22-2.07-5.79-3.7c-1.57-1.63-2.74-3.6-3.49-5.93h9.47c0.84,0.96,1.92,1.69,3.24,2.19
		s2.88,0.74,4.69,0.74c2.31,0,4.16-0.36,5.57-1.07c1.4-0.71,2.4-1.64,2.97-2.77c0.58-1.13,0.87-3.08,0.87-5.85
		c-1.51,1.51-3.09,2.6-4.75,3.26c-1.66,0.66-3.53,0.99-5.63,0.99c-4.59,0-8.47-1.66-11.64-4.97c-3.17-3.31-4.75-7.51-4.75-12.58
		c0-5.43,1.68-9.79,5.03-13.09c3.04-2.98,6.67-4.47,10.89-4.47c1.97,0,3.83,0.36,5.58,1.09c1.75,0.72,3.51,1.91,5.27,3.57V13.21z
		 M154.12,20.35c-2.71,0-4.94,0.91-6.7,2.72c-1.76,1.81-2.64,4.09-2.64,6.84c0,2.85,0.9,5.19,2.71,7.02
		c1.8,1.83,4.07,2.74,6.79,2.74c2.66,0,4.86-0.89,6.59-2.67c1.73-1.78,2.6-4.12,2.6-7.02c0-2.85-0.87-5.17-2.61-6.95
		C159.11,21.25,156.87,20.35,154.12,20.35z"/>
	<path class="st0" d="M179.32,0h8.59v47.44h-8.59V0z"/>
	<path class="st1" d="M228.94,38.04l-6.43-4.57c-1.01,2.56-2.75,4.52-5.22,5.9c-2.35,1.31-4.63,1.76-6.84,1.34
		c-2.21-0.41-4.08-1.58-5.61-3.52l24.1-13.42l-0.77-1.44c-2.75-4.95-6.44-8.11-11.07-9.48c-4.63-1.37-9.3-0.75-14.01,1.87
		c-4.43,2.47-7.28,6.04-8.54,10.69c-1.27,4.65-0.63,9.26,1.91,13.82c2.48,4.45,6.02,7.34,10.62,8.65c4.6,1.32,9.24,0.67,13.93-1.94
		c3.03-1.69,5.34-3.68,6.94-5.97c0.37-0.52,0.7-1.07,0.99-1.64c0.04-0.07,0.08-0.14,0.11-0.21L228.94,38.04z M202.47,25.69
		c0.93-2.05,2.44-3.66,4.53-4.82c1.93-1.08,3.91-1.5,5.95-1.26c2.04,0.23,3.77,1.04,5.2,2.43l-16.27,9.06
		C201.69,28.78,201.89,26.98,202.47,25.69z"/>
</g>
</svg>
