<?xml version="1.0" encoding="utf-8"?>
<!-- Generator: Adobe Illustrator 26.0.1, SVG Export Plug-In . SVG Version: 6.00 Build 0)  -->
<svg version="1.1" id="Layer_1" xmlns="http://www.w3.org/2000/svg" xmlns:xlink="http://www.w3.org/1999/xlink" x="0px" y="0px"
	 viewBox="0 0 899.6 35.32" style="enable-background:new 0 0 899.6 35.32;" xml:space="preserve">
<style type="text/css">
	.st0{clip-path:url(#SVGID_00000150810933830158360680000002574815632593239485_);}
	.st1{fill:#c2aaf2;}
</style>
<g>
	<defs>
		<path id="SVGID_1_" d="M899.6,33.58H0V6.5c0,0,89.94,13.99,96.05,13.54S280.67,6.5,300.36,6.5s220.13,13.54,220.13,13.54
			S668.25,7.6,707.6,7.6s123.14,10.71,141.02,11.16c18.04,0.45,52.56-7.58,50.99-12.26V33.58z"/>
	</defs>
	<clipPath id="SVGID_00000140010272847137692560000016711744942826054290_">
		<use xlink:href="#SVGID_1_"  style="overflow:visible;"/>
	</clipPath>
	<g style="clip-path:url(#SVGID_00000140010272847137692560000016711744942826054290_);">
		<g>
			<path class="st1" d="M618.94,18.98c0.11,0.01,0.18,0.02,0.28,0.03C619.2,18.95,619.26,18.91,618.94,18.98z"/>
			<path class="st1" d="M875.33,23.86l-0.89,0.11c0.45,0,0.77-0.01,0.98-0.03C875.41,23.92,875.38,23.89,875.33,23.86z"/>
			<path class="st1" d="M1141.03,28.82c-0.77-0.04-1.73-0.07-3.03-0.07c-1.3-0.01-3.02,0.02-4.97,0.03c-1.97,0.02-4.14,0-6.18-0.04
				c-2.03-0.05-3.95-0.13-5.68-0.22c-3.46-0.18-6.23-0.4-7.85-0.57c8.93,0.32,2.33,0,0.64-0.19l-0.62,0.1
				c-5.24-0.26-5.1-0.55-7.68-0.7c-0.01,0.02,0.06,0.05,0.12,0.08l0.34-0.03c0.23,0.06,0.07,0.09-0.22,0.11
				c0.04,0.06-0.21,0.1-1.62,0.04l0.28-0.02c-2.18-0.03-5.87-0.16-7.48-0.21l-0.02-0.24c-0.98,0.1-3.04,0.08-5.72,0.04
				c-2.7-0.05-6.02-0.1-9.39-0.16c-3.38-0.06-6.8-0.13-9.65-0.2c-2.86-0.07-5.15-0.13-6.39-0.14c-1.27-0.08-2.59-0.12-3.95-0.14
				c-1.34-0.03-2.92-0.04-4.44-0.04c-3.09-0.01-6.35,0-9.64-0.12c-5.24-0.1-6.58-0.18-7.26-0.29c-0.68-0.11-0.71-0.23-3.41-0.34
				c-6.74-0.16,1.43,0.28-1.25,0.29c-2.69-0.11-5.4-0.21-8.15-0.3c4.67-0.06,2.07-0.19,1.16-0.27c-3.47,0-8.22-0.04-12.01-0.01
				c-1.41,0.01-2.73,0.02-3.86,0.05l-0.22-0.02c-2.82-0.3-5.75-0.64-9.09-0.99c-4.57-0.07-9.86-0.16-15.76-0.08
				c-1.48,0.02-2.98,0.06-4.5,0.11l-3.08,0.1c-1.46,0.04-2.94,0.08-4.43,0.12c-2.41-0.08-4.09-0.09-4.41,0.03l0.02-0.09
				c-0.21,0.05-0.34,0.11-0.42,0.17c-5.81,0.11-11.82,0.17-18,0.21c-1.33-0.02-2.7-0.04-4.16-0.06c-1.7-0.02-3.4-0.03-5.1-0.04
				c-3.02-0.31-5.81-0.54-8.16-0.78c-3.66,0-7.81-0.05-11.79-0.07L912,23.76l-24.07-0.18l-23.78-0.75c0.01,0,0.03,0,0.05,0l-0.06,0
				l-14.65-0.46l-11.7-0.15l-11.43-0.15c-7.4-0.12-15.15-0.3-23.2-0.45c-1.26-0.02-2.54-0.04-3.81-0.07c3.34,0,6.45-0.04,9.24-0.06
				c1.8-0.01,3.5-0.02,5.08-0.02c0.77,0,1.55,0.01,2.27,0.02c0.37,0,0.73,0.01,1.08,0.02l1.21,0.02c8.2,0.15,16.63,0.31,25.2,0.47
				c8.76,0.16,17.84,0.31,27.19,0.42c4.68,0.05,9.41,0.11,14.22,0.13l14.2,0.05c1.71,0.08,7.6,0.05,14.78,0.03
				c3.6-0.01,7.5-0.01,11.53,0.04c4.57,0.06,9.38,0.12,14.2,0.19c19.7,0.24,39.33,0.41,42.52,0.37l-8.36-0.6
				c13.43,0.09,23.28,0.3,32.64,0.48c4.68,0.09,9.24,0.18,14.07,0.23c2.41,0.03,4.89,0.05,7.49,0.07c2.56,0.01,5.56,0.02,8.51,0
				l-1.32,0.09c1.76,0.07,3.12-0.15,8.79-0.21c2.83-0.03,6.73-0.03,12.25,0.06c5.5,0.09,12.65,0.25,21.71,0.59l0.01,0.05
				c1.07,0,1.21-0.08,2.83-0.01l-5.39-0.26c3.69-0.11,6.9-0.34,11.8-0.33c1.05,0.06,1.42,0.16,1.53,0.24
				c3.99,0.01,7.84,0.04,12.11,0.07l3.83,0.36c3.83-0.11,2.09-0.78,12.32-0.27c-3.86-0.51,5.08-0.19,3.82-0.44
				c0.52,0.06,1.69,0.16,2.63,0.25c6.08,0.04,17.55,0.08,20.39-0.11c0,0-23.81-1.3-30.21-1.87c8.57,0.25,2.26-0.02,0.57-0.2
				l-0.57,0.1c-5.13-0.19-5.13-0.47-7.7-0.59c0,0.02,0.08,0.05,0.15,0.08l0.33-0.03c0.24,0.05,0.1,0.09-0.18,0.11
				c0.06,0.06-0.18,0.11-1.57,0.07l0.27-0.03c-2.15,0.01-5.85-0.09-7.46-0.13l-0.03-0.24c-1.91,0.2-8.26-0.06-14.88-0.32
				c-6.61-0.26-13.44-0.54-15.99-0.55c-5.23-0.3-11.45,0.09-17.85-0.08c-10.14-0.11-5.14-0.36-10.22-0.6
				c-6.29-0.21,1.3,0.29-1.21,0.28c-2.53-0.13-5.04-0.27-7.54-0.41c4.35,0.03,1.98-0.15,1.19-0.25c-6.55-0.13-17.07-0.72-19.09-0.28
				c-8.95-0.36-8.97-0.55-12.8-0.63c1.29,0.11,3.84,0.22,3.86,0.32c-3.58-0.26-1.71,0.03-0.25,0.09
				c-5.47,0.12-28.37-1.28-29.52-0.78l0-0.09c-0.91,0.26-0.14,0.54-1.01,0.74c-1.54-0.1-20.25-1.26-25.45-1.8
				c7.25,0.23,1.91-0.03,0.48-0.2l-0.48,0.1c-4.34-0.17-4.34-0.46-6.51-0.57c0,0.02,0.07,0.05,0.13,0.08l0.28-0.03
				c0.2,0.05,0.08,0.09-0.15,0.11c0.05,0.06-0.15,0.11-1.33,0.07l0.23-0.03c-1.82,0.01-4.95-0.08-6.31-0.12l-0.03-0.24
				c-2.68,0.34-15.9-0.59-22.74-0.95c-0.58,0.81-1.53,1.41-2.89,1.61c-4.35,0.62-8.66,0.27-13.02,0.64
				c-4.94,0.41-9.85,1.07-14.8,1.39c-9.96,0.64-19.94,0.73-29.91,0.44c-6.43-0.19-6.44-10.19,0-10c8.18,0.24,16.36,0.2,24.54-0.17
				c-0.16,0-0.32,0-0.48,0c-0.78,0-1.55-0.04-2.27-0.06c-0.87-0.02-1.74-0.05-2.57-0.07c-3.32-0.09-6.1-0.17-6.66-0.01
				c-1.13-0.13-2.25-0.27-3.36-0.4c-5.59-0.45-7.61-0.44-8.79-0.34c-1.18,0.1-1.51,0.28-3.81,0.12l-5.82-0.54l5.9,0.16
				c-5.81-0.35-8.17-0.54-13.17-0.88c0,0-0.06,0.01-0.06,0.01c0.35,0.02,0.57,0.04,0.62,0.07l-0.88-0.01
				c-0.77,0.18-3.77,0.27-7.91,0.19c-5.85-0.14-10.42,0.08-19.75-0.47l-2.33,0.36l-7.01-0.34l0-0.31
				c6.87,0.12,19.79,0.19,28.62,0.31l0.16-0.14c-5.23-0.08-11.19-0.03-14.65-0.11c-1.51-0.08-5.12-0.4-3.59-0.58l-2.51,0.2
				c-17.47-0.22-17.58-0.21-35.81-0.83l1.58,0.18c-3.62,0.04-7.22,0.08-8.23-0.19c-10.95-0.21-22.29-0.58-29.39-1.08l-1.56,0.35
				c-2.31-0.05-5.77-0.66-6.9-0.16l-4.94,0.09c-3.16-0.07-5.1,0.11-8.69-0.16l0,0c-0.01,0-0.02,0-0.02,0
				c-0.22-0.02-0.45-0.04-0.68-0.05c0,0.01,0.02,0.02,0.04,0.03c-3.58-0.13-3.56-0.05-3.67,0.02c-0.11,0.07-0.4,0.14-4.26-0.03
				c-2.49-0.31-2.83,0.42-6.72,0.25l-3.86-0.62c-7.16-0.46-8.44,0.02-19.3-0.18c-5.24-0.28-7.93-0.76-4.35-1.11
				c-4.94,0.43-2.21,0.28-8.82,0.47c-1.07-0.21-0.38-0.24,1.07-0.42c-6.08-0.25-3.64,0.16-8.22,0.17c-1.17,0.38-2.37,1-3.79,1.04
				l1.8,0.1c-2.38,0.13-4.51,0.24-6.83,0.3c-2.3,0.06-4.68,0.08-7.12,0.01l0.07-0.19c-1.67,0.06-3.31,0.1-4.94,0.15l-0.42-0.24
				c-2.31,0.04-4.59,0.07-6.86,0.08l0.95,0.07c-0.8,0.01-2.52,0.03-4.41,0.01c-1.94-0.02-4.36-0.07-6-0.15l0.13-0.13
				c-4.73-0.28-9.04-0.31-13.56-0.29c-2.26,0.02-4.57,0.03-7.01,0.05c-0.61,0-1.23,0.01-1.85,0.01c-0.71,0-1.43,0-2.16,0
				c-1.45,0-2.95,0.01-4.51,0.01c0.51-0.09,1.03-0.18,1.57-0.27c-4.31-0.28-1.09,0.41-6.02,0.29L579.56,3
				c-4.04,0.48-5.48-0.04-8.35-0.17l1.55,0.43l-5.15-0.03c-5.48-0.08-3.56-0.52-2.96-0.76l-3.33,0.38l-0.84-0.39
				c-2.26,0.46-2.49-0.05-6.45,0.15c-0.33-0.15,0.65-0.22-0.67-0.3c-0.47,0.04-1.21,0.08-1.89,0.11l-2.05,0.11l-4.1,0.21l4.94-0.17
				l-0.62,0.56c-5.15,0.36-6.95-0.17-10.62-0.06l2.53-0.13c-5.99,0.05-6.3-0.2-9.67-0.38c1.05,0.12,2.64,0.3,0.22,0.34
				c-1.78,0-0.96-0.21-2.64-0.3c-0.41,0.37-4.7,0.51-8.59,0.27c0.05-0.05,0.13-0.1,0.39-0.13c-0.99,0.05-1.4,0.14-3.04,0.02
				l0.98-0.4c-1.04,0.12-2.09,0.23-3.17,0.34c-2.1-0.16-5.37,0.08-5.04-0.2l1.27-0.06c-5.54-0.15-11.39-0.32-17.72-0.39l-0.33-0.34
				c-1.94,0.44-10.23-0.15-9.33,0.43c-1.76-0.14-4.97-0.05-7.43,0c-2.46,0.05-4.25,0.04-3.55-0.3c-5.32,0.04-8.96,0.22-12.87,0.31
				c-3.54,0.09-8.79,0.07-15.39-0.18c-4.76-0.63-17.82-0.64-26.41-0.82c-8.4,0-15.31,0-22.27,0c-3.36,0-7.29,0-11.14,0.02
				c-3.88,0.02-7.93,0.06-12.31,0.1c-10.9-0.77-25.6,0.37-36.02-0.2l-2.83,0.27c-0.78-0.07-1.95-0.13-3.11-0.18
				c-1.17-0.05-2.38-0.07-3.65-0.09c-2.51-0.03-5.16-0.02-7.84,0.01c-5.34,0.06-10.79,0.16-15.82-0.03
				c-2.34,0.16-3.55,0.2-4.09,0.22c0.43,0.01,1.13,0.07,1.43,0.26c-2.86-0.11-8.17,0.04-7.86-0.35l0.66-0.04
				c0.16-0.19-1.83-0.16-4.35-0.13c-2.51,0.02-5.55,0.04-7.14-0.16l1.73,0.45l-5.46-0.16l1.48-0.05c-2.99,0.06-5.84,0.09-8.57,0.1
				c-2.69,0.01-5.43-0.01-7.7-0.03c-4.7-0.05-9.03-0.19-13.37-0.32c-8.67-0.26-17.5-0.55-29.55-0.12c1.54-0.23,0.36-0.17-1.27-0.11
				c-1.63,0.06-3.7,0.13-3.99-0.12c-3.27-0.28-6.22-0.21-8.9-0.01c-0.67,0.05-1.32,0.11-1.97,0.16c-0.61,0.06-1.36,0.12-1.78,0.17
				c-0.97,0.11-1.94,0.21-2.94,0.27c0.02,0.02-0.01,0.05-0.22,0.1c-2.46,0.02-4.92,0.03-7.45,0.01c4.27-0.64-5.25,0.54-1.3-0.01
				c-9.94-0.23-21.8-0.52-34.96-0.75c-6.57-0.11-13.44-0.19-20.45-0.18c-3.5,0-7.04,0.03-10.57,0.08c-1.99,0.02-2.91,0.04-4.31,0.05
				c-1.3,0.01-2.64,0-4-0.02l0.99,0.16c-5.42-0.02-13,0-17.85-0.37C99.28,0.03,97.99,0,96.69,0c-0.67,0-1.25,0.01-1.97,0.03
				c-0.74,0.02-1.45,0.04-2.13,0.07c-2.7,0.12-4.76,0.3-5.78,0.32c-5.08,0.3-9.59-0.02-8.89-0.1c-2.61,0.1-4.95,0.3-7.44,0.45
				c-1.31,0.08-2.68,0.14-4.12,0.16c-1.47,0.02-2.95,0-4.46-0.1c-0.59-0.16-2.31-0.24-5.01-0.29C54.18,0.5,50.6,0.46,46.37,0.62
				c-1.54,0.06-2.99,0.16-4.25,0.25c-1.03,0.08-1.95,0.16-2.74,0.22c-1.31,0.1-1.9,0.08-2.13-0.05L37.3,1.1
				c-0.49-0.01-0.98-0.02-1.46-0.03c-0.87-0.03-2.32-0.04-4.26-0.08c-1.92-0.03-4.21-0.08-6.95-0.11c-1.37-0.01-2.86-0.02-4.51,0
				c-1.6,0.02-3.15,0.07-4.58,0.12c-2.85,0.1-5.22,0.22-7.11,0.2c0,0,0.09-0.05,0.33-0.1C7.81,1.26,7.04,1.4,6.23,1.53
				c3.16,0.64,6.29,1.44,9.51,1.72c2.79,0.24,5.68,0.11,8.39,0.85c3.53-0.67,8.01,0.66,11.18,0.9c4.42,0.34,9.28,0.32,13.73,1.32
				c1.25,0,2.51-0.01,3.76-0.01c1.34,0,2.37,0.37,3.14,0.94c0.59,0.1,1.17,0.21,1.77,0.31c3.64,0.64,7.3,0.94,10.99,1.19
				c9.01,0.62,18.04,0.77,27.06,0.45c6.45-0.23,6.42,9.78,0,10c-8.1,0.28-16.19,0.2-24.28-0.27c-6.18-0.36-12.23-1.6-18.35-2.08
				c-4.4-0.35-8.77-0.98-13.27-1.39c-2.87-0.26-5.76-0.43-8.62-0.74c-0.7-0.08-1.77-0.39-2.82-0.63c-0.75-0.03-1.51-0.07-2.26-0.12
				c-1.04,0.49-2.21,0.67-3.26,0.24c-0.65-0.27-1.33-0.45-2.02-0.59c-8.41-0.61-16.79-1.26-25.24-0.85c-2.04,0.1-3.4-0.67-4.11-1.76
				c-2.67,0.17-5.34,0.35-7.99,0.54c1.99,0.7,3.86,1.41,5.7,2.11c0.3,0.03,0.6,0.07,0.9,0.1c-2.46,0.19-4.46,0.44-6.1,0.68
				c-0.37,0.05-0.72,0.11-1.07,0.16c-1.62,0.02-3.18,0-4.71-0.07c0,0,0.17-0.04,0.47-0.08l-1.16,0.11l-1.5,0.09l-3.01,0.18
				l-6.03,0.36l-12.12,0.73l6.96,2.12l1.73,0.16c-0.5,0.03-1.01,0.06-1.51,0.1c-3.74,0.25-7.07,0.62-8.17,0.85
				c0,0,0.38-0.02,1.06-0.04c0.68-0.03,1.66-0.06,2.84-0.1c2.36-0.06,5.52-0.1,8.74-0.08c2.04,0.02,4.08,0.05,6.03,0.1l0.38,0.03
				c-2.02,0.19-4.12,0.39-7.05,0.52c-0.96-0.02-1.38-0.1-1.55-0.17c-3.45,0.16-6.92,0.33-10.41,0.51c-1.23-0.05-2.37-0.11-3.68-0.15
				c-1.79,0.17-1.99,0.4-3,0.6c-1,0.2-2.83,0.38-7.31,0.5c3.85,0.22-3.62,0.54-2.19,0.69c-0.5-0.02-1.54-0.04-2.39-0.07
				c-2.27,0.18-5.41,0.44-8.04,0.64c-2.65,0.2-4.8,0.34-5.62,0.47c0,0,0.25,0.01,0.69,0.03c0.44,0.02,1.09,0.04,1.93,0.06
				c1.66,0.05,4.07,0.08,6.81,0.07c5.45-0.01,12.08-0.12,15.04-0.05c-7.02,0.34-1.71,0.17-0.12,0.23l0.27-0.14
				c4.31-0.16,4.74,0.12,6.92,0.09c-0.03-0.02-0.13-0.05-0.23-0.07l-0.22,0.05c-0.27-0.04-0.2-0.08-0.01-0.12
				c-0.13-0.06,0-0.11,1.17-0.15l-0.18,0.04c1.7-0.13,4.78-0.21,6.12-0.25l0.31,0.23c2.59-0.59,21.66-0.12,25.88-0.27
				c3.02,0.09,6.16-0.14,9.52-0.33c0.58,0.02,1.16,0.05,1.66,0.08c1.14,0.06,2.05,0.14,2.72,0.2c-3.58-0.08-4.14-0.02-3.47,0.01
				c0.65,0.04,2.34,0.11,3.04,0.2l0.45-0.11C4.2,22.57,4.07,22.87,6.05,23c0.01-0.02-0.05-0.05-0.1-0.08L5.7,22.95
				c-0.18-0.05-0.06-0.09,0.16-0.11c-0.03-0.06,0.17-0.1,1.24-0.06L6.89,22.8c1.68,0,4.5,0.13,5.72,0.17l-0.01,0.24
				c1.46-0.19,6.44,0.05,11.44,0.41c0.2,0.01,0.4,0.03,0.6,0.04c-5.16,0.14-10.67,0.28-15.73,0.59c1.57,0.51,2.94,1.04,4.18,1.57
				c-1.24,0.04-2.97,0.12-6.52,0.11C3.87,25.93,0.2,25.86-5.27,25.7c-5.48-0.16-12.62-0.38-22.05-0.66l-0.02-0.05
				c-1.14,0.01-1.22,0.09-3.15,0.02l5.75,0.24c-3.71,0.13-6.85,0.38-11.64,0.43c-1.04-0.05-1.42-0.14-1.55-0.22
				c-3.89,0.04-7.69,0.07-11.43,0.09c-1.17-0.11-2.33-0.21-3.46-0.33c-1.67,0.07-2.11,0.27-3.27,0.39
				c-0.29,0.03-0.62,0.06-1.03,0.07c-0.21,0.01-0.41,0.02-0.69,0.02c-0.32,0-0.66,0.01-1.04,0c-1.52-0.01-3.55-0.05-6.4-0.13
				c2.21,0.22,0.8,0.29-0.87,0.34c-1.69,0.05-3.65,0.09-2.94,0.19c-0.56-0.05-1.81-0.12-2.8-0.18c-3.05,0.07-7.15,0.2-10.55,0.31
				c-3.42,0.11-6.27,0.18-7.44,0.28c0,0,4.83,0.29,11.28,0.47c3.21,0.1,6.78,0.19,9.96,0.31c3.18,0.12,5.94,0.26,7.55,0.4
				c-8.54-0.12-2.2,0.05-0.52,0.2l0.54-0.11c2.57,0.07,3.81,0.19,4.71,0.3c0.92,0.1,1.53,0.21,2.77,0.26c0-0.02-0.08-0.05-0.15-0.08
				l-0.31,0.04c-0.24-0.05-0.1-0.09,0.16-0.11c-0.06-0.06,0.16-0.11,1.48-0.08l-0.25,0.03c2.03-0.02,5.56,0.03,7.1,0.06l0.1,0.24
				c3.46-0.42,24.71,0.58,29.48,0.63c4.92,0.3,10.77-0.01,16.89,0.25c9.71,0.26,4.82,0.44,9.69,0.74c6.11,0.27-1.21-0.3,1.26-0.27
				l7.34,0.48c-4.31-0.06-1.99,0.13-1.21,0.24c3.2,0.08,7.36,0.28,11.01,0.38c3.65,0.1,6.78,0.12,7.76-0.11
				c2.24,0.07,3.92,0.13,5.29,0.18c1.4,0.05,2.44,0.09,3.3,0.12c1.71,0.06,2.73,0.1,4.68,0.09c-1.35-0.06-4.01-0.11-4.08-0.21
				c3.79,0.17,1.72-0.07,0.2-0.1c2.75-0.12,9.99-0.07,15.8,0.02c2.93,0.05,5.54,0.12,7.45,0.17c0.94,0.02,1.73,0.03,2.51,0.02
				c0.72-0.01,1.19-0.04,1.33-0.11l0,0.09c1.24-0.37-0.7-0.77,2.97-0.93l2.44,0.21l3.69-0.11c2.47,0.16,1.25,0.25,1.25,0.29
				c5.97-0.09,14.43,0.25,21.76,0.37l-7.8-1.14c6.14,0.32,17.31,0.91,18.48,0.57l3.75,0.38c12.44,0.75,8.53-0.25,13.47-0.02
				l6.24,0.41l-6.13-0.03c6.17,0.22,8.65,0.36,13.58,0.63c0,0,0.05-0.01,0.05-0.01c-0.34-0.02-0.56-0.04-0.61-0.06l0.85-0.01
				c0.7-0.19,3.86-0.31,8.15-0.27c6.1,0.09,10.83-0.17,20.56,0.32l2.38-0.37l7.27,0.32l0.01,0.31c-7.08-0.12-20.44-0.11-29.63-0.13
				l-0.13,0.14c5.45,0.03,11.6-0.07,15.19-0.01c1.58,0.07,5.33,0.37,3.78,0.57l2.56-0.21c18.23,0.16,17.3,0.19,36.96,0.98l-1.7-0.19
				c3.92-0.01,7.94-0.04,9.06,0.24c6.16,0.1,12.67,0.19,18.99,0.16l1.18,0c0.39,0,0.81,0,1.02,0c0.52,0,1.04,0.01,1.55,0.01
				c1.01,0.01,2.06,0.04,3.02,0.06c1.98,0.06,3.85,0.15,5.51,0.26l1.41-0.36c2.19,0.03,5.68,0.64,6.82,0.14l5.18-0.09
				c3.41,0.07,5.5-0.11,9.67,0.13l0,0c0.01,0,0.02,0,0.02,0c0.26,0.02,0.53,0.03,0.79,0.05c0-0.01-0.03-0.02-0.05-0.03
				c4.21,0.09,4.19,0,4.29-0.08c0.13-0.09,0.31-0.13,5.35-0.09c3.29,0.21,3.7-0.56,7.15-0.56c1.35,0.15,2.67,0.31,3.96,0.47
				c3.33,0.12,5.25,0.06,7.66-0.03c2.43-0.09,5.3-0.2,10.87-0.15c0.71,0.03,1.38,0.07,2,0.1c0.74,0.03,1.44,0.07,2.04,0.11
				c1.22,0.07,2.14,0.15,2.72,0.24c1.17,0.18,1.05,0.39-1.15,0.61c3.05-0.27,3.56-0.37,4.42-0.43c0.81-0.06,2.02-0.1,5.2-0.31
				c1.17,0.17,0.54,0.23-0.78,0.45c3.09,0.04,3.73-0.03,4.34-0.12c0.56-0.09,0.99-0.2,2.76-0.24c0.69-0.39,1.49-1.02,2.57-1.05
				c-0.45-0.04-0.9-0.07-1.38-0.1c0.9-0.06,1.79-0.11,2.69-0.15c1.05-0.03,2.28-0.05,3.46-0.06c2.4-0.02,4.91,0.02,7.53,0.13
				l-0.16,0.19l5.54-0.06l0.39,0.24l8.03-0.03l-1.12-0.07c1.89-0.02,8.13-0.07,11.8,0.05l-0.09,0.13c5.2,0.21,9.96,0.16,14.92,0.01
				c1.24-0.04,2.49-0.08,3.76-0.13c1.19-0.05,2.4-0.09,3.64-0.14c2.26-0.09,4.69-0.15,7.38-0.17l-1.3,0.28
				c3.74,0.26,0.81-0.43,5.3-0.3l0.31,0.34c3.83-0.43,5.14,0.12,7.94,0.3l-1.37-0.45l5.34,0.14c6,0.2,3.78,0.59,2.91,0.81l4.1-0.32
				l0.89,0.4c1.53-0.22,2.2-0.2,3.49-0.15c1.23,0.05,2.83,0.12,5.7-0.03c0.56,0.14-0.88,0.24,1.15,0.28c3.1-0.22,5.9-0.46,8.56-0.69
				c-1.61,0.11-3.31,0.23-5.06,0.34l0.28-0.58c5.19-0.53,7.27-0.07,10.67-0.28l-2.31,0.2c2.85-0.11,4.28-0.1,5.43-0.04
				c0.57,0.03,1.07,0.06,1.59,0.1c0.26,0.02,0.54,0.04,0.84,0.06c0.37,0.02,0.78,0.04,1.24,0.05c-0.56-0.05-1.35-0.12-1.51-0.18
				c-0.19-0.06-0.15-0.12,1.18-0.16c1.9-0.03,1.09,0.2,2.92,0.27c0.32-0.38,4.83-0.58,9.04-0.42c-0.03,0.05-0.1,0.11-0.35,0.14
				c1.04-0.06,1.54-0.17,3.42-0.08l-0.91,0.43l3.37-0.42c2.41,0.1,5.69-0.23,5.52,0.05l-1.3,0.1c5.96-0.01,11.89-0.04,17.78-0.08
				l0.44,0.33c1.48-0.49,9.7,0.05,8.77-0.52c3.51,0.27,12.85-0.41,11.32,0.27c11.62-0.12,16.83-0.86,30.61-0.58
				c5,0.54,18.22,0.38,27.17,0.5c8.86-0.07,16.16-0.13,23.5-0.19c7.74-0.09,15.33-0.25,24.29-0.45c11.33,0.64,26.35-0.63,37.22-0.09
				l0.73-0.07l0.85-0.07l1.7-0.14c4.23,0.27,9.49,0.23,14.93,0.15c5.46-0.08,11.17-0.2,16.69-0.04c2.55-0.18,3.87-0.24,4.47-0.26
				c-0.49-0.01-1.26-0.06-1.61-0.25c1.01,0.03,2.3,0.02,3.59,0.01l3.24,0.05l1.57,0.02c0.31,0.04,0.48,0.09,0.44,0.16l-0.73,0.05
				c-0.21,0.39,8.86-0.28,12.14,0.07l-0.68-0.15c5.5,0.06,11.01,0.12,16.58,0.17c7.9,0.06,15.89,0.11,23.95,0.11
				c4.03,0,8.09-0.01,12.16-0.02c3.54-0.01,7.06,0.01,10.71,0.07c13.57,0.38,28.98,0.77,46.16,1c4.12,0.05,8.28,0.1,12.47,0.14
				c4.13,0.05,8.3,0.11,12.49,0.19c8.39,0.15,16.88,0.34,25.42,0.6c1.57,0.12,7.06,0.26,14.59,0.38c1.89,0.02,3.9,0.05,6,0.08
				c1.08,0.01,2.18,0.02,3.31,0.03c1.34,0.01,2.68,0.02,4,0.01c5.3-0.01,10.38-0.11,14.83-0.2c4.48-0.09,8.4-0.16,11.69-0.15
				c0.45,0,0.73,0,1.32,0.01c0.54,0.01,1.07,0.01,1.59,0.02c1.05,0.01,2.09,0.02,3.1,0.03c2.02,0.02,3.96,0.04,5.77,0.06
				c7.26,0.07,12.59,0.1,14.08,0.07l-7.84-0.6c12.54,0.09,21.88,0.29,30.72,0.46c8.85,0.17,17.24,0.32,28.1,0.29l-1.2,0.09
				c3.16,0.16,4.95-0.88,39.87,0.93l0,0.05c1.11,0.01,1.2-0.07,3.05,0.04l-5.46-0.34c3.62-0.07,6.78-0.25,11.6-0.21
				c1.02,0.07,1.37,0.17,1.47,0.25l11.83,0.1l3.62,0.36c3.62-0.11,1.97-0.78,11.64-0.28c-3.64-0.5,4.8-0.2,3.61-0.44
				c0.49,0.06,1.6,0.16,2.49,0.25c5.75,0.03,16.58,0.07,19.26-0.12c0,0-22.5-1.28-28.55-1.85c8.1,0.24,2.14-0.02,0.54-0.2l-0.54,0.1
				c-4.85-0.18-4.85-0.46-7.27-0.58c0,0.02,0.07,0.05,0.14,0.08l0.31-0.03c0.23,0.05,0.09,0.09-0.17,0.11
				c0.06,0.06-0.17,0.11-1.49,0.07l0.25-0.03c-2.03,0.01-5.53-0.08-7.05-0.13l-0.03-0.24c-3.6,0.4-24.16-1.04-28.99-1.13
				c-4.85-0.37-10.87-0.09-16.92-0.33c-7.05-0.16-6.38-0.31-7.4-0.48c1.27-0.02,2.55-0.05,3.84-0.08c4.32-0.11,8.9-0.21,14.25-0.31
				l-1.15,0.11c1.58,0.05,2.69-0.19,7.96-0.25c2.65-0.03,6.33,0,11.73,0.17c1.35,0.04,2.81,0.09,4.38,0.15
				c0.81,0.03,1.65,0.06,2.52,0.09c1.02,0.03,2.09,0.07,3.17,0.1c4.34,0.13,9.16,0.21,14.11,0.29l0.03,0.05
				c1.18-0.03,1.28-0.1,3.13-0.06l-6.03-0.16c4.06-0.18,7.29-0.48,12-0.57c1.03,0.04,1.4,0.14,1.54,0.21
				c3.92-0.06,6.63-0.07,10.52,0l3.49,0.4c1.87-0.03,2.5-0.21,3.87-0.31c1.46-0.1,3.51-0.09,9.34,0.22
				c-2.17-0.27-0.72-0.3,1.11-0.31c1.83,0,4.15,0,3.38-0.12c0.61,0.06,2.06,0.15,3.27,0.23c0.94-0.01,2.04-0.03,3.18-0.05
				c1.18-0.04,2.44-0.06,3.71-0.12c2.55-0.11,4.96-0.27,6.62-0.39c1.66-0.12,2.66-0.19,3.53-0.25c0.86-0.06,1.63-0.09,2.1-0.15
				c0,0-0.24-0.02-0.67-0.05C1142.39,28.9,1141.79,28.85,1141.03,28.82z M971.9,18.25c-0.36,0.07-0.95,0.13-1.95,0.17l-0.87-0.07
				C970.29,18.32,971.27,18.29,971.9,18.25z M945.33,18.43l2.39,0.35c-1.55-0.08-3.4-0.18-5.33-0.28
				C943.05,18.43,943.93,18.4,945.33,18.43z M168.87,6.73c0.13,0,0.26,0,0.38,0.01C168.16,6.86,167.28,6.97,168.87,6.73z
				 M117.1,23.84c-2.3,0.08-4.26,0.2-5.21,0.19c-0.8,0.02-1.59,0.02-2.35,0.01c0.09-0.13,0.46-0.25,1.52-0.35l2.06,0.13l2.78-0.22
				C117.77,23.68,117.19,23.79,117.1,23.84z M182.58,23.64c1.77-0.06,3.38-0.11,4.61-0.12c0.24,0.01,0.55,0.02,0.88,0.04
				C186.23,23.58,184.4,23.61,182.58,23.64z M175.19,23.72l-0.01,0.05c-4.87,0.1-9.71,0.2-14.44,0.28c-3.25,0.06-6.44,0.09-9.41,0.1
				c-1.5,0.01-3.04,0-4.55-0.01c-1.51-0.01-3.03-0.02-4.55-0.05l1.09,0.17c-6.11-0.06-13.95,0-18.77-0.37
				c-2.16-0.16-4.56-0.14-6.72-0.08c4.57-0.22,10.91-0.14,16.38-0.17l-6.76-0.96c5.04,0.16,14.08,0.55,14.86,0.2l3.11,0.32
				c10.04,0.59,6.7-0.35,10.78-0.19l5.28,0.32l-5.04,0.06c5.16,0.13,7.26,0.22,11.41,0.4c0,0,0.04-0.01,0.04-0.01
				c-0.29-0.01-0.48-0.03-0.53-0.05l0.69-0.02c0.46-0.2,2.96-0.39,6.41-0.44c4.91-0.04,8.54-0.42,16.42-0.14l1.52-0.39
				c0.73,0.11,1.1,0.22,0.42,0.31l2.34-0.2c1.14,0.02,2.19,0.03,3.19,0.05l0.14,0.3C193,23.22,182.59,23.55,175.19,23.72z
				 M219.27,23.89c-0.57-0.02-1.17-0.04-1.75-0.06c0.77,0.02,1.6,0.03,2.48,0.05C218.51,24.01,217.09,24.13,219.27,23.89z
				 M229.22,23.97c0,0.02-0.05,0.05-0.31,0.09c-2.75-0.03-5.5-0.08-8.24-0.13c0.08-0.01,0.12-0.01,0.19-0.02
				c0.39,0.01,0.75,0.02,1.17,0.02l-0.72-0.08c1.15-0.14,0.59-0.11-0.36-0.04l-0.35-0.04c3.12-0.1,6.27-0.21,7.3,0.04
				c1.55-0.01,3.1-0.01,4.65-0.02C231.42,23.87,230.32,23.93,229.22,23.97z M244.85,23.79c0.72,0.01,1.41,0.03,2.09,0.05
				C246.1,23.86,245.31,23.86,244.85,23.79z M223.94,6.58c-3.43-0.11-6.88-0.22-10.56-0.29c0.37-0.03,0.74-0.07,1.12-0.11
				c8.87,0.25,19.05,0.29,30.21,0.43c1.96,0.02,3.96,0.05,5.96,0.07C239.8,7.08,231.96,6.83,223.94,6.58z M249.32,6.75l1.33-0.07
				c1.07,0.01,2.13,0.03,3.21,0.04l0.52,0.13L249.32,6.75z M337.88,7.3c-0.4-0.04-0.82-0.06-1.24-0.09l1.45,0.01
				c2.35,0.02,4.67,0.02,6.99,0.03C342.79,7.27,340.41,7.29,337.88,7.3z M675.18,20.52l0.04-0.04c2.88,0.05,5.82,0.1,8.88,0.13
				c1.9,0.02,3.8,0.04,5.69,0.05C685.27,20.78,680.37,20.77,675.18,20.52z M766.63,21.23c-3.51-0.08-5.67,0.1-9.66-0.17l0,0
				c-0.01,0-0.02,0-0.02,0c-0.24-0.02-0.5-0.04-0.75-0.05c0,0.01,0.02,0.02,0.04,0.03c-7.95-0.28,0.08,0.33-9.02-0.01
				c-2.92-0.31-3.23,0.42-7.67,0.27l-4.45-0.6c-0.13-0.01-0.25-0.01-0.38-0.02c3.57,0.01,7.11,0.02,10.63,0.06
				c7.71,0.07,15.54,0.25,23.94,0.44c0.15,0,0.31,0.01,0.46,0.01L766.63,21.23z"/>
			<path class="st1" d="M875.79,8.34c0.63,0.02,1.35,0.04,2.07,0.06c4.07-0.24,8.14-0.57,12.2-1.01c-2.45-0.02-5.36-0.07-8.67-0.04
				c-1.15,0.01-2.13,0.03-3.5,0.08c-0.83,0.03-1.59,0.08-2.23,0.13l-1.54,0.12c-0.51,0.04-1.01,0.08-1.54,0.1
				c-0.5,0.02-1.1,0.02-1.52,0.02c0.76,0.17,1.88,0.33,2.97,0.42C874.58,8.26,875.16,8.3,875.79,8.34z"/>
			<path class="st1" d="M928.95,7.69c-3.53,0.09-14.95-0.56-21.75-0.78c2.85,1.08,4.29,4.56,3.33,6.98
				c4.81-0.02,13.22,0.17,29.08,1.05l0,0.05c1.11,0.01,1.11-0.09,3.33,0.07l-5.54-0.37c3.32-0.07,6.23-0.25,10.65-0.22
				c0.94,0.07,1.26,0.17,1.35,0.25l10.86,0.08l3.33,0.36c3.32-0.12,1.81-0.79,10.69-0.29c-3.34-0.5,4.41-0.2,3.31-0.45
				c0.45,0.06,1.46,0.16,2.28,0.25c5.28,0.03,15.22,0.05,17.69-0.15c0,0-20.37-1.23-26.08-1.8c0.23,0,0.45,0.01,0.69,0.01
				c1.5,0.05,2.34,0.07,2.72,0.07c5.21,0.14,12.29,0.42,22.07,0.95l0,0.05c1.17,0.01,1.16-0.09,3.5,0.07l-5.83-0.38
				c3.5-0.07,6.55-0.25,11.21-0.21c0.99,0.07,1.33,0.17,1.42,0.25l11.43,0.09l3.5,0.36c3.5-0.11,1.91-0.78,11.25-0.29
				c-3.52-0.5,4.64-0.2,3.49-0.45c0.47,0.06,1.54,0.16,2.4,0.25c5.56,0.03,16.03,0.06,18.62-0.13c0,0-21.74-1.27-27.59-1.83
				c7.82,0.24,2.06-0.02,0.52-0.2l-0.52,0.1c-4.69-0.18-4.69-0.46-7.03-0.58c0,0.02,0.07,0.05,0.14,0.08l0.3-0.03
				c0.22,0.05,0.09,0.09-0.16,0.11c0.06,0.06-0.16,0.11-1.44,0.07l0.24-0.03c-1.96,0.01-5.34-0.08-6.81-0.12l-0.03-0.24
				c-3.48,0.4-23.35-1.03-28.02-1.12c-4.68-0.37-10.5-0.08-16.35-0.32c-9.33-0.21-4.66-0.41-9.34-0.69
				c-5.85-0.23,1.18,0.29-1.16,0.27l-7-0.43c4.07,0.03,1.86-0.14,1.12-0.25c-6.06-0.13-15.6-0.7-17.47-0.26
				c-8.17-0.35-8.19-0.54-11.69-0.61c1.17,0.1,3.5,0.22,3.52,0.31C925.91,7.34,927.61,7.63,928.95,7.69z"/>
			<path class="st1" d="M267.07,6.96c-0.95-0.01-1.85-0.02-2.55-0.05c0.52,0.01,1.05,0.02,1.57,0.03
				C266.42,6.94,266.74,6.95,267.07,6.96z"/>
			<path class="st1" d="M1014.41,30.16l-0.34-0.02c0.28,0,0.56-0.01,0.84-0.01C1014.93,30.16,1014.81,30.17,1014.41,30.16z"/>
			<path class="st1" d="M698.35,20.4l0.59-0.06C698.67,20.36,698.49,20.38,698.35,20.4z"/>
			<path class="st1" d="M863.3,26.51l-0.18,0.01C863.19,26.68,863.44,26.62,863.3,26.51z"/>
			<path class="st1" d="M819.07,22.14c1.21-0.01,2.25-0.03,3-0.09C818.72,22.03,818.58,22.08,819.07,22.14z"/>
			<path class="st1" d="M885.44,26.51c1.11,0.05,2.25,0.14,3.47,0.17c2.14-0.02,1.27-0.1,0.01-0.2c-1.05,0.02-1.93,0.03-2.53,0.02
				C885.79,26.51,885.44,26.51,885.44,26.51z"/>
			<path class="st1" d="M881.32,24.35l0.55-0.12C880.87,24.24,880.9,24.29,881.32,24.35z"/>
			<path class="st1" d="M856.95,20.72l0.65,0.04C857.35,20.74,857.14,20.73,856.95,20.72z"/>
			<path class="st1" d="M862.77,20.33l-0.19,0C862.6,20.5,862.88,20.44,862.77,20.33z"/>
			<path class="st1" d="M823.19,15.76c-3.06-0.08-3.19-0.05-2.76,0.02C821.53,15.8,822.5,15.81,823.19,15.76z"/>
			<path class="st1" d="M888.15,20.37c1.65,0.04,1.02-0.07,0.05-0.19c-1.68-0.01-2.86-0.01-2.86-0.01
				C886.27,20.21,887.2,20.31,888.15,20.37z"/>
			<path class="st1" d="M760.8,11.95l-0.18,0C760.63,12.11,760.89,12.05,760.8,11.95z"/>
			<path class="st1" d="M783.07,11.97c1.43,0.03,0.89-0.07,0.05-0.19c-1.46,0-2.48-0.01-2.48-0.01
				C781.45,11.82,782.25,11.91,783.07,11.97z"/>
			<path class="st1" d="M229.91,23.95c0,0,0.1,0,0.18-0.01c-0.15-0.02-0.3-0.03-0.45-0.05L229.91,23.95z"/>
			<path class="st1" d="M231.04,23.86c-0.04-0.01-0.12-0.02-0.31-0.04C230.8,23.84,230.91,23.85,231.04,23.86z"/>
			<path class="st1" d="M232.27,23.92c-0.04-0.02-0.07-0.04-0.12-0.05c-0.04,0-0.08,0-0.1,0l0.11,0.05
				c-0.4-0.02-0.82-0.03-1.13-0.06c0.14,0.04-0.63,0.08-0.95,0.09c1.01,0.11,2.02,0.13,3.04,0.08
				C233.12,23.97,232.73,23.95,232.27,23.92z"/>
			<path class="st1" d="M855.96,29.01l-0.8,0.12c0.42-0.01,0.71-0.02,0.9-0.05C856.05,29.06,856.02,29.04,855.96,29.01z"/>
			<path class="st1" d="M843.66,31.66l-0.19,0C843.48,31.82,843.77,31.76,843.66,31.66z"/>
			<path class="st1" d="M867.93,31.7c1.56,0.04,0.97-0.07,0.05-0.19c-1.59-0.01-2.7-0.01-2.7-0.01
				C866.15,31.55,867.03,31.65,867.93,31.7z"/>
			<path class="st1" d="M861.58,29.38l0.49-0.13C861.15,29.27,861.18,29.32,861.58,29.38z"/>
			<path class="st1" d="M754.02,13.13l-0.71,0.13c0.38-0.01,0.64-0.02,0.81-0.05C754.1,13.18,754.07,13.15,754.02,13.13z"/>
			<path class="st1" d="M759.05,13.48l0.44-0.13C758.67,13.38,758.7,13.43,759.05,13.48z"/>
			<path class="st1" d="M30.79,23.96l0.56-0.18c-0.35,0.04-0.59,0.08-0.73,0.12C30.66,23.92,30.72,23.94,30.79,23.96z"/>
			<path class="st1" d="M39.1,20.51l0.17-0.01C39.13,20.34,38.92,20.42,39.1,20.51z"/>
			<path class="st1" d="M17.66,22.51c-1.26,0.11-0.67,0.16,0.2,0.19c1.28-0.15,2.17-0.25,2.17-0.25
				C19.26,22.49,18.43,22.48,17.66,22.51z"/>
			<path class="st1" d="M25.69,24.11l-0.25,0.17C26.17,24.17,26.09,24.13,25.69,24.11z"/>
			<path class="st1" d="M206.46,23.27l-0.48,0.06C206.19,23.31,206.34,23.29,206.46,23.27z"/>
			<path class="st1" d="M581.02,29.55C581.36,29.55,581.52,29.52,581.02,29.55L581.02,29.55z"/>
			<path class="st1" d="M312.7,33.24c-0.09,0-0.12,0.01-0.21,0.01c-0.12,0.08-0.23,0.16-0.34,0.21L312.7,33.24z"/>
			<path class="st1" d="M268.27,33.56c-0.11-0.01-0.19-0.01-0.29-0.02C268.01,33.58,267.96,33.63,268.27,33.56z"/>
			<path class="st1" d="M412.09,31.62c-0.21,0.02-0.44,0.04-0.74,0.05C411.73,31.67,411.94,31.65,412.09,31.62z"/>
			<path class="st1" d="M227.8,33.54c-0.02-0.06-0.12-0.11-0.23-0.15c-0.05,0-0.09,0-0.12,0L227.8,33.54z"/>
			<path class="st1" d="M25.82,29.43l0.79-0.13c-0.42,0.01-0.71,0.03-0.9,0.06C25.73,29.38,25.76,29.41,25.82,29.43z"/>
			<path class="st1" d="M173.02,32c-0.04,0.02-0.17,0.04-0.18,0.07c0.95,0.07,3.42,0.08,6.58,0.08l0.16-0.24L173.02,32z"/>
			<path class="st1" d="M193.22,32.77l-0.54,0.06C192.92,32.81,193.09,32.79,193.22,32.77z"/>
			<path class="st1" d="M37.4,26.56l0.19,0C37.53,26.4,37.27,26.46,37.4,26.56z"/>
			<path class="st1" d="M142.69,31.43c-0.11,0-0.22,0-0.33-0.01l1.27,0.24L142.69,31.43z"/>
			<path class="st1" d="M75.61,31.38c3.02,0.12,3.17,0.08,2.75,0.01C77.27,31.35,76.3,31.34,75.61,31.38z"/>
			<path class="st1" d="M12.5,26.97c-1.66,0.03-0.98,0.11,0.04,0.2c1.68-0.06,2.92-0.1,2.92-0.1C14.47,27.05,13.48,26.98,12.5,26.97
				z"/>
			<path class="st1" d="M20.06,29.1l-0.48,0.13C20.53,29.2,20.48,29.15,20.06,29.1z"/>
			<path class="st1" d="M69.56,23.85l0.68-0.12c-0.35,0-0.59,0.01-0.75,0.04C69.49,23.79,69.52,23.82,69.56,23.85z"/>
			<path class="st1" d="M193.54,23.99l0.03-0.24l-5.26,0.27c-0.03,0.02-0.12,0.05-0.12,0.07C188.98,24.14,191.01,24.09,193.54,23.99
				z"/>
			<path class="st1" d="M163.78,24.08c-0.09,0-0.18,0-0.26,0l1.08,0.21L163.78,24.08z"/>
			<path class="st1" d="M64.88,23.47l-0.39,0.13C65.26,23.57,65.22,23.53,64.88,23.47z"/>
			<path class="st1" d="M285.16,1.04C284.85,1.03,284.7,1.06,285.16,1.04L285.16,1.04z"/>
			<path class="st1" d="M541.88,0.89c0.11,0,0.17,0,0.28-0.01c0.18-0.08,0.35-0.15,0.53-0.21L541.88,0.89z"/>
			<path class="st1" d="M584.47,2.04c0.1,0.01,0.16,0.02,0.25,0.02C584.7,2.01,584.75,1.97,584.47,2.04z"/>
			<path class="st1" d="M447.14,1.65c0.21-0.01,0.42-0.03,0.71-0.03C447.49,1.62,447.29,1.63,447.14,1.65z"/>
			<path class="st1" d="M209.35,1.23c0,0,0.09-0.01,0.16-0.01c-0.14-0.01-0.27-0.02-0.41-0.04L209.35,1.23z"/>
			<path class="st1" d="M210.32,1.11c-0.04-0.01-0.12-0.02-0.29-0.03C210.1,1.09,210.21,1.1,210.32,1.11z"/>
			<path class="st1" d="M210.32,1.11c0.14,0.04-0.54,0.09-0.82,0.11c0.93,0.08,1.87,0.09,2.72,0
				C212.19,1.13,210.97,1.15,210.32,1.11z"/>
			<path class="st1" d="M92.55,1.86c-0.05-0.06-0.07-0.13-0.11-0.19C92.42,1.75,92.48,1.81,92.55,1.86z"/>
			<path class="st1" d="M622.75,2.73c0.01,0.06,0.1,0.11,0.2,0.15c0.05,0,0.08,0,0.11,0L622.75,2.73z"/>
			<path class="st1" d="M815.08,7.87L814.31,8c0.41-0.01,0.69-0.02,0.87-0.05C815.17,7.92,815.13,7.9,815.08,7.87z"/>
			<path class="st1" d="M675.28,4.34c0.05-0.02,0.19-0.04,0.2-0.06c-0.97-0.08-3.29-0.13-6.33-0.17l-0.19,0.23L675.28,4.34z"/>
			<path class="st1" d="M122.34,0.97c0.11-0.01,0.22-0.02,0.34-0.02C122.51,0.95,122.41,0.96,122.34,0.97z"/>
			<path class="st1" d="M655.9,3.35l0.53-0.06C656.19,3.3,656.03,3.32,655.9,3.35z"/>
			<path class="st1" d="M803.19,10.52l-0.19,0C803.02,10.69,803.29,10.63,803.19,10.52z"/>
			<polygon class="st1" points="702.96,5.24 702.4,5.13 703.24,5.34 703.42,5.34 703.23,5.29 			"/>
			<path class="st1" d="M767.39,5.36c-2.87-0.09-3-0.06-2.6,0.02C765.82,5.4,766.73,5.4,767.39,5.36z"/>
			<path class="st1" d="M826.65,10.56c1.51,0.04,0.93-0.07,0.05-0.19c-1.54-0.01-2.61-0.01-2.61-0.01
				C824.93,10.41,825.78,10.5,826.65,10.56z"/>
			<path class="st1" d="M820.51,8.23l0.47-0.13C820.1,8.13,820.13,8.17,820.51,8.23z"/>
		</g>
	</g>
</g>
</svg>
