<?xml version="1.0" encoding="utf-8"?>
<!-- Generator: Adobe Illustrator 26.0.1, SVG Export Plug-In . SVG Version: 6.00 Build 0)  -->
<svg version="1.1" id="Layer_1" xmlns="http://www.w3.org/2000/svg" xmlns:xlink="http://www.w3.org/1999/xlink" x="0px" y="0px"
	 viewBox="0 0 899.58 10.32" style="enable-background:new 0 0 899.58 10.32;" xml:space="preserve">
<style type="text/css">
	.st0{clip-path:url(#SVGID_00000021113443653488617810000014045308106993774998_);}
	.st1{clip-path:url(#SVGID_00000183233108422538921940000005573390324923443329_);}
	.st2{clip-path:url(#SVGID_00000151529481124706233410000010846663000880784540_);}
	.st3{clip-path:url(#SVGID_00000069368915656860047140000013464721081016955264_);}
	.st4{fill:#c2aaf2;}
</style>
<g>
	<defs>
		<rect id="SVGID_1_" x="0" y="-0.24" width="899.79" height="10.9"/>
	</defs>
	<clipPath id="SVGID_00000092414147176663797640000001389385719557532083_">
		<use xlink:href="#SVGID_1_"  style="overflow:visible;"/>
	</clipPath>
	<g style="clip-path:url(#SVGID_00000092414147176663797640000001389385719557532083_);">
		<g>
			<defs>
				<rect id="SVGID_00000164515703903914222170000015507350567590385545_" x="-3.21" y="-0.34" width="903" height="11"/>
			</defs>
			<clipPath id="SVGID_00000098907070711487414770000015723187393107681671_">
				<use xlink:href="#SVGID_00000164515703903914222170000015507350567590385545_"  style="overflow:visible;"/>
			</clipPath>
			<g style="clip-path:url(#SVGID_00000098907070711487414770000015723187393107681671_);">
				<g>
					<defs>
						<rect id="SVGID_00000173125640046363635560000007687416932176531893_" x="-27.47" y="-0.49" width="941.73" height="11.15"/>
					</defs>
					<clipPath id="SVGID_00000023276482232027830670000007205064898310098836_">
						<use xlink:href="#SVGID_00000173125640046363635560000007687416932176531893_"  style="overflow:visible;"/>
					</clipPath>
					<g style="clip-path:url(#SVGID_00000023276482232027830670000007205064898310098836_);">
						<g>
							<g>
								<defs>
									<path id="SVGID_00000060736861511101603090000015649735899551362231_" d="M0.13-5.26h899.6v27.08
										c0,0-89.94-13.99-96.05-13.54S619.06,21.82,599.37,21.82S379.24,8.28,379.24,8.28S231.48,20.72,192.13,20.72
										S68.99,10.01,51.11,9.56C33.07,9.11-1.45,17.14,0.12,21.82L0.13-5.26L0.13-5.26z"/>
								</defs>
								<clipPath id="SVGID_00000034771545844515678090000007312228256580072619_">
									<use xlink:href="#SVGID_00000060736861511101603090000015649735899551362231_"  style="overflow:visible;"/>
								</clipPath>
								<g style="clip-path:url(#SVGID_00000034771545844515678090000007312228256580072619_);">
									<g>
										<path class="st4" d="M280.79,9.34c-0.11-0.01-0.18-0.02-0.28-0.03C280.53,9.37,280.47,9.41,280.79,9.34z"/>
										<path class="st4" d="M24.4,4.46l0.89-0.11c-0.45,0-0.77,0.01-0.98,0.03C24.32,4.4,24.35,4.43,24.4,4.46z"/>
										<path class="st4" d="M-241.3-0.5c0.77,0.04,1.73,0.07,3.03,0.07c1.3,0.01,3.02-0.02,4.97-0.03c1.97-0.02,4.14,0,6.18,0.04
											c2.03,0.05,3.95,0.13,5.68,0.22c3.46,0.18,6.23,0.4,7.85,0.57c-8.93-0.32-2.33,0-0.64,0.19l0.62-0.1
											c5.24,0.26,5.1,0.55,7.68,0.7c0.01-0.02-0.06-0.05-0.12-0.08l-0.34,0.03c-0.23-0.06-0.07-0.09,0.22-0.11
											c-0.04-0.06,0.21-0.1,1.62-0.04l-0.28,0.02c2.18,0.03,5.87,0.16,7.48,0.21l0.02,0.24c0.98-0.1,3.04-0.08,5.72-0.04
											c2.7,0.05,6.02,0.1,9.39,0.16c3.38,0.06,6.8,0.13,9.65,0.2c2.86,0.07,5.15,0.13,6.39,0.14c1.27,0.08,2.59,0.12,3.95,0.14
											c1.34,0.03,2.92,0.04,4.44,0.04c3.09,0.01,6.35,0,9.64,0.12c5.24,0.1,6.58,0.18,7.26,0.29s0.71,0.23,3.41,0.34
											c6.74,0.16-1.43-0.28,1.25-0.29c2.69,0.11,5.4,0.21,8.15,0.3c-4.67,0.06-2.07,0.19-1.16,0.27c3.47,0,8.22,0.04,12.01,0.01
											c1.41-0.01,2.73-0.02,3.86-0.05l0.22,0.02c2.82,0.3,5.75,0.64,9.09,0.99c4.57,0.07,9.86,0.16,15.76,0.08
											c1.48-0.02,2.98-0.06,4.5-0.11l3.08-0.1c1.46-0.04,2.94-0.08,4.43-0.12c2.41,0.08,4.09,0.09,4.41-0.03l-0.02,0.09
											c0.21-0.05,0.34-0.11,0.42-0.17c5.81-0.11,11.82-0.17,18-0.21c1.33,0.02,2.7,0.04,4.16,0.06c1.7,0.02,3.4,0.03,5.1,0.04
											c3.02,0.31,5.81,0.54,8.16,0.78c3.66,0,7.81,0.05,11.79,0.07l12,0.11L11.8,4.74l23.78,0.75c-0.01,0-0.03,0-0.05,0h0.06
											l14.65,0.46l11.7,0.15l11.43,0.15c7.4,0.12,15.15,0.3,23.2,0.45c1.26,0.02,2.54,0.04,3.81,0.07
											c-3.34,0-6.45,0.04-9.24,0.06c-1.8,0.01-3.5,0.02-5.08,0.02c-0.77,0-1.55-0.01-2.27-0.02c-0.37,0-0.73-0.01-1.08-0.02
											L81.5,6.79c-8.2-0.15-16.63-0.31-25.2-0.47C47.54,6.16,38.46,6.01,29.11,5.9c-4.68-0.05-9.41-0.11-14.22-0.13L0.69,5.72
											c-1.71-0.08-7.6-0.05-14.78-0.03c-3.6,0.01-7.5,0.01-11.53-0.04c-4.57-0.06-9.38-0.12-14.2-0.19
											c-19.7-0.24-39.33-0.41-42.52-0.37l8.36,0.6c-13.43-0.09-23.28-0.3-32.64-0.48c-4.68-0.09-9.24-0.18-14.07-0.23
											c-2.41-0.03-4.89-0.05-7.49-0.07c-2.56-0.01-5.56-0.02-8.51,0l1.32-0.09c-1.76-0.07-3.12,0.15-8.79,0.21
											c-2.83,0.03-6.73,0.03-12.25-0.06c-5.5-0.09-12.65-0.25-21.71-0.59l-0.01-0.05c-1.07,0-1.21,0.08-2.83,0.01l5.39,0.26
											c-3.69,0.11-6.9,0.34-11.8,0.33c-1.05-0.06-1.42-0.16-1.53-0.24c-3.99-0.01-7.84-0.04-12.11-0.07l-3.83-0.36
											c-3.83,0.11-2.09,0.78-12.32,0.27c3.86,0.51-5.08,0.19-3.82,0.44c-0.52-0.06-1.69-0.16-2.63-0.25
											c-6.08-0.04-17.55-0.08-20.39,0.11c0,0,23.81,1.3,30.21,1.87c-8.57-0.25-2.26,0.02-0.57,0.2l0.57-0.1
											c5.13,0.19,5.13,0.47,7.7,0.59c0-0.02-0.08-0.05-0.15-0.08l-0.33,0.03c-0.24-0.05-0.1-0.09,0.18-0.11
											c-0.06-0.06,0.18-0.11,1.57-0.07l-0.27,0.03c2.15-0.01,5.85,0.09,7.46,0.13l0.03,0.24c1.91-0.2,8.26,0.06,14.88,0.32
											c6.61,0.26,13.44,0.54,15.99,0.55c5.23,0.3,11.45-0.09,17.85,0.08c10.14,0.11,5.14,0.36,10.22,0.6
											c6.29,0.21-1.3-0.29,1.21-0.28c2.53,0.13,5.04,0.27,7.54,0.41c-4.35-0.03-1.98,0.15-1.19,0.25
											c6.55,0.13,17.07,0.72,19.09,0.28c8.95,0.36,8.97,0.55,12.8,0.63c-1.29-0.11-3.84-0.22-3.86-0.32
											c3.58,0.26,1.71-0.03,0.25-0.09c5.47-0.12,28.37,1.28,29.52,0.78v0.09c0.91-0.26,0.14-0.54,1.01-0.74
											c1.54,0.1,20.25,1.26,25.45,1.8c-7.25-0.23-1.91,0.03-0.48,0.2l0.48-0.1c4.34,0.17,4.34,0.46,6.51,0.57
											c0-0.02-0.07-0.05-0.13-0.08l-0.28,0.03c-0.2-0.05-0.08-0.09,0.15-0.11c-0.05-0.06,0.15-0.11,1.33-0.07l-0.23,0.03
											c1.82-0.01,4.95,0.08,6.31,0.12l0.03,0.24c2.68-0.34,15.9,0.59,22.74,0.95c0.58-0.81,1.53-1.41,2.89-1.61
											c4.35-0.62,8.66-0.27,13.02-0.64c4.94-0.41,9.85-1.07,14.8-1.39c9.96-0.64,19.94-0.73,29.91-0.44
											c6.43,0.19,6.44,10.19,0,10c-8.18-0.24-16.36-0.2-24.54,0.17c0.16,0,0.32,0,0.48,0c0.78,0,1.55,0.04,2.27,0.06
											c0.87,0.02,1.74,0.05,2.57,0.07c3.32,0.09,6.1,0.17,6.66,0.01c1.13,0.13,2.25,0.27,3.36,0.4
											c5.59,0.45,7.61,0.44,8.79,0.34s1.51-0.28,3.81-0.12l5.82,0.54l-5.9-0.16c5.81,0.35,8.17,0.54,13.17,0.88l0.06-0.01
											c-0.35-0.02-0.57-0.04-0.62-0.07l0.88,0.01c0.77-0.18,3.77-0.27,7.91-0.19c5.85,0.14,10.42-0.08,19.75,0.47l2.33-0.36
											l7.01,0.34v0.31C97.15,22.19,84.23,22.12,75.4,22l-0.16,0.14c5.23,0.08,11.19,0.03,14.65,0.11
											c1.51,0.08,5.12,0.4,3.59,0.58l2.51-0.2c17.47,0.22,17.58,0.21,35.81,0.83l-1.58-0.18c3.62-0.04,7.22-0.08,8.23,0.19
											c10.95,0.21,22.29,0.58,29.39,1.08l1.56-0.35c2.31,0.05,5.77,0.66,6.9,0.16l4.94-0.09c3.16,0.07,5.1-0.11,8.69,0.16l0,0
											c0.01,0,0.02,0,0.02,0c0.22,0.02,0.45,0.04,0.68,0.05c0-0.01-0.02-0.02-0.04-0.03c3.58,0.13,3.56,0.05,3.67-0.02
											s0.4-0.14,4.26,0.03c2.49,0.31,2.83-0.42,6.72-0.25l3.86,0.62c7.16,0.46,8.44-0.02,19.3,0.18
											c5.24,0.28,7.93,0.76,4.35,1.11c4.94-0.43,2.21-0.28,8.82-0.47c1.07,0.21,0.38,0.24-1.07,0.42
											c6.08,0.25,3.64-0.16,8.22-0.17c1.17-0.38,2.37-1,3.79-1.04l-1.8-0.1c2.38-0.13,4.51-0.24,6.83-0.3
											c2.3-0.06,4.68-0.08,7.12-0.01l-0.07,0.19c1.67-0.06,3.31-0.1,4.94-0.15l0.42,0.24c2.31-0.04,4.59-0.07,6.86-0.08
											l-0.95-0.07c0.8-0.01,2.52-0.03,4.41-0.01c1.94,0.02,4.36,0.07,6,0.15l-0.13,0.13c4.73,0.28,9.04,0.31,13.56,0.29
											c2.26-0.02,4.57-0.03,7.01-0.05c0.61,0,1.23-0.01,1.85-0.01c0.71,0,1.43,0,2.16,0c1.45,0,2.95-0.01,4.51-0.01
											c-0.51,0.09-1.03,0.18-1.57,0.27c4.31,0.28,1.09-0.41,6.02-0.29l0.49,0.27c4.04-0.48,5.48,0.04,8.35,0.17l-1.55-0.43
											l5.15,0.03c5.48,0.08,3.56,0.52,2.96,0.76l3.33-0.38l0.84,0.39c2.26-0.46,2.49,0.05,6.45-0.15
											c0.33,0.15-0.65,0.22,0.67,0.3c0.47-0.04,1.21-0.08,1.89-0.11l2.05-0.11l4.1-0.21l-4.94,0.17l0.62-0.56
											c5.15-0.36,6.95,0.17,10.62,0.06l-2.53,0.13c5.99-0.05,6.3,0.2,9.67,0.38c-1.05-0.12-2.64-0.3-0.22-0.34
											c1.78,0,0.96,0.21,2.64,0.3c0.41-0.37,4.7-0.51,8.59-0.27c-0.05,0.05-0.13,0.1-0.39,0.13c0.99-0.05,1.4-0.14,3.04-0.02
											l-0.98,0.4c1.04-0.12,2.09-0.23,3.17-0.34c2.1,0.16,5.37-0.08,5.04,0.2l-1.27,0.06c5.54,0.15,11.39,0.32,17.72,0.39
											l0.33,0.34c1.94-0.44,10.23,0.15,9.33-0.43c1.76,0.14,4.97,0.05,7.43,0s4.25-0.04,3.55,0.3
											c5.32-0.04,8.96-0.22,12.87-0.31c3.54-0.09,8.79-0.07,15.39,0.18c4.76,0.63,17.82,0.64,26.41,0.82c8.4,0,15.31,0,22.27,0
											c3.36,0,7.29,0,11.14-0.02c3.88-0.02,7.93-0.06,12.31-0.1c10.9,0.77,25.6-0.37,36.02,0.2l2.83-0.27
											c0.78,0.07,1.95,0.13,3.11,0.18c1.17,0.05,2.38,0.07,3.65,0.09c2.51,0.03,5.16,0.02,7.84-0.01
											c5.34-0.06,10.79-0.16,15.82,0.03c2.34-0.16,3.55-0.2,4.09-0.22c-0.43-0.01-1.13-0.07-1.43-0.26
											c2.86,0.11,8.17-0.04,7.86,0.35l-0.66,0.04c-0.16,0.19,1.83,0.16,4.35,0.13c2.51-0.02,5.55-0.04,7.14,0.16l-1.73-0.45
											l5.46,0.16l-1.48,0.05c2.99-0.06,5.84-0.09,8.57-0.1c2.69-0.01,5.43,0.01,7.7,0.03c4.7,0.05,9.03,0.19,13.37,0.32
											c8.67,0.26,17.5,0.55,29.55,0.12c-1.54,0.23-0.36,0.17,1.27,0.11s3.7-0.13,3.99,0.12c3.27,0.28,6.22,0.21,8.9,0.01
											c0.67-0.05,1.32-0.11,1.97-0.16c0.61-0.06,1.36-0.12,1.78-0.17c0.97-0.11,1.94-0.21,2.94-0.27
											c-0.02-0.02,0.01-0.05,0.22-0.1c2.46-0.02,4.92-0.03,7.45-0.01c-4.27,0.64,5.25-0.54,1.3,0.01
											c9.94,0.23,21.8,0.52,34.96,0.75c6.57,0.11,13.44,0.19,20.45,0.18c3.5,0,7.04-0.03,10.57-0.08
											c1.99-0.02,2.91-0.04,4.31-0.05c1.3-0.01,2.64,0,4,0.02l-0.99-0.16c5.42,0.02,13,0,17.85,0.37
											c1.2,0.12,2.49,0.15,3.79,0.15c0.67,0,1.25-0.01,1.97-0.03c0.74-0.02,1.45-0.04,2.13-0.07c2.7-0.12,4.76-0.3,5.78-0.32
											c5.08-0.3,9.59,0.02,8.89,0.1c2.61-0.1,4.95-0.3,7.44-0.45c1.31-0.08,2.68-0.14,4.12-0.16c1.47-0.02,2.95,0,4.46,0.1
											c0.59,0.16,2.31,0.24,5.01,0.29c2.71,0.04,6.29,0.08,10.52-0.08c1.54-0.06,2.99-0.16,4.25-0.25
											c1.03-0.08,1.95-0.16,2.74-0.22c1.31-0.1,1.9-0.08,2.13,0.05l-0.05-0.06c0.49,0.01,0.98,0.02,1.46,0.03
											c0.87,0.03,2.32,0.04,4.26,0.08c1.92,0.03,4.21,0.08,6.95,0.11c1.37,0.01,2.86,0.02,4.51,0c1.6-0.02,3.15-0.07,4.58-0.12
											c2.85-0.1,5.22-0.22,7.11-0.2c0,0-0.09,0.05-0.33,0.1c0.95-0.16,1.72-0.3,2.53-0.43c-3.16-0.64-6.29-1.44-9.51-1.72
											c-2.79-0.24-5.68-0.11-8.39-0.85c-3.53,0.67-8.01-0.66-11.18-0.9C860,22.98,855.14,23,850.69,22
											c-1.25,0-2.51,0.01-3.76,0.01c-1.34,0-2.37-0.37-3.14-0.94c-0.59-0.1-1.17-0.21-1.77-0.31c-3.64-0.64-7.3-0.94-10.99-1.19
											c-9.01-0.62-18.04-0.77-27.06-0.45c-6.45,0.23-6.42-9.78,0-10c8.1-0.28,16.19-0.2,24.28,0.27
											c6.18,0.36,12.23,1.6,18.35,2.08c4.4,0.35,8.77,0.98,13.27,1.39c2.87,0.26,5.76,0.43,8.62,0.74
											c0.7,0.08,1.77,0.39,2.82,0.63c0.75,0.03,1.51,0.07,2.26,0.12c1.04-0.49,2.21-0.67,3.26-0.24
											c0.65,0.27,1.33,0.45,2.02,0.59c8.41,0.61,16.79,1.26,25.24,0.85c2.04-0.1,3.4,0.67,4.11,1.76
											c2.67-0.17,5.34-0.35,7.99-0.54c-1.99-0.7-3.86-1.41-5.7-2.11c-0.3-0.03-0.6-0.07-0.9-0.1c2.46-0.19,4.46-0.44,6.1-0.68
											c0.37-0.05,0.72-0.11,1.07-0.16c1.62-0.02,3.18,0,4.71,0.07c0,0-0.17,0.04-0.47,0.08l1.16-0.11l1.5-0.09l3.01-0.18
											l6.03-0.36l12.12-0.73l-6.96-2.12l-1.73-0.16c0.5-0.03,1.01-0.06,1.51-0.1c3.74-0.25,7.07-0.62,8.17-0.85
											c0,0-0.38,0.02-1.06,0.04c-0.68,0.03-1.66,0.06-2.84,0.1c-2.36,0.06-5.52,0.1-8.74,0.08c-2.04-0.02-4.08-0.05-6.03-0.1
											l-0.38-0.03c2.02-0.19,4.12-0.39,7.05-0.52c0.96,0.02,1.38,0.1,1.55,0.17c3.45-0.16,6.92-0.33,10.41-0.51
											c1.23,0.05,2.37,0.11,3.68,0.15c1.79-0.17,1.99-0.4,3-0.6c1-0.2,2.83-0.38,7.31-0.5c-3.85-0.22,3.62-0.54,2.19-0.69
											c0.5,0.02,1.54,0.04,2.39,0.07c2.27-0.18,5.41-0.44,8.04-0.64c2.65-0.2,4.8-0.34,5.62-0.47c0,0-0.25-0.01-0.69-0.03
											s-1.09-0.04-1.93-0.06c-1.66-0.05-4.07-0.08-6.81-0.07c-5.45,0.01-12.08,0.12-15.04,0.05c7.02-0.34,1.71-0.17,0.12-0.23
											l-0.27,0.14c-4.31,0.16-4.74-0.12-6.92-0.09c0.03,0.02,0.13,0.05,0.23,0.07l0.22-0.05c0.27,0.04,0.2,0.08,0.01,0.12
											c0.13,0.06,0,0.11-1.17,0.15l0.18-0.04c-1.7,0.13-4.78,0.21-6.12,0.25L939.5,5.7c-2.59,0.59-21.66,0.12-25.88,0.27
											c-3.02-0.09-6.16,0.14-9.52,0.33c-0.58-0.02-1.16-0.05-1.66-0.08c-1.14-0.06-2.05-0.14-2.72-0.2
											c3.58,0.08,4.14,0.02,3.47-0.01c-0.65-0.04-2.34-0.11-3.04-0.2l-0.45,0.11c-4.17-0.17-4.04-0.47-6.02-0.6
											c-0.01,0.02,0.05,0.05,0.1,0.08l0.25-0.03c0.18,0.05,0.06,0.09-0.16,0.11c0.03,0.06-0.17,0.1-1.24,0.06l0.21-0.02
											c-1.68,0-4.5-0.13-5.72-0.17l0.01-0.24c-1.46,0.19-6.44-0.05-11.44-0.41c-0.2-0.01-0.4-0.03-0.6-0.04
											c5.16-0.14,10.67-0.28,15.73-0.59c-1.57-0.51-2.94-1.04-4.18-1.57c1.24-0.04,2.97-0.12,6.52-0.11
											c2.7,0,6.37,0.07,11.84,0.23c5.48,0.16,12.62,0.38,22.05,0.66l0.02,0.05c1.14-0.01,1.22-0.09,3.15-0.02l-5.75-0.24
											c3.71-0.13,6.85-0.38,11.64-0.43c1.04,0.05,1.42,0.14,1.55,0.22c3.89-0.04,7.69-0.07,11.43-0.09
											c1.17,0.11,2.33,0.21,3.46,0.33c1.67-0.07,2.11-0.27,3.27-0.39c0.29-0.03,0.62-0.06,1.03-0.07
											c0.21-0.01,0.41-0.02,0.69-0.02c0.32,0,0.66-0.01,1.04,0c1.52,0.01,3.55,0.05,6.4,0.13c-2.21-0.22-0.8-0.29,0.87-0.34
											c1.69-0.05,3.65-0.09,2.94-0.19c0.56,0.05,1.81,0.12,2.8,0.18c3.05-0.07,7.15-0.2,10.55-0.31
											c3.42-0.11,6.27-0.18,7.44-0.28c0,0-4.83-0.29-11.28-0.47c-3.21-0.1-6.78-0.19-9.96-0.31s-5.94-0.26-7.55-0.4
											c8.54,0.12,2.2-0.05,0.52-0.2l-0.54,0.11c-2.57-0.07-3.81-0.19-4.71-0.3c-0.92-0.1-1.53-0.21-2.77-0.26
											c0,0.02,0.08,0.05,0.15,0.08l0.31-0.04c0.24,0.05,0.1,0.09-0.16,0.11c0.06,0.06-0.16,0.11-1.48,0.08l0.25-0.03
											c-2.03,0.02-5.56-0.03-7.1-0.06l-0.1-0.24c-3.46,0.42-24.71-0.58-29.48-0.63c-4.92-0.3-10.77,0.01-16.89-0.25
											c-9.71-0.26-4.82-0.44-9.69-0.74c-6.11-0.27,1.21,0.3-1.26,0.27l-7.34-0.48c4.31,0.06,1.99-0.13,1.21-0.24
											c-3.2-0.08-7.36-0.28-11.01-0.38s-6.78-0.12-7.76,0.11c-2.24-0.07-3.92-0.13-5.29-0.18c-1.4-0.05-2.44-0.09-3.3-0.12
											c-1.71-0.06-2.73-0.1-4.68-0.09c1.35,0.06,4.01,0.11,4.08,0.21c-3.79-0.17-1.72,0.07-0.2,0.1
											c-2.75,0.12-9.99,0.07-15.8-0.02c-2.93-0.05-5.54-0.12-7.45-0.17c-0.94-0.02-1.73-0.03-2.51-0.02
											c-0.72,0.01-1.19,0.04-1.33,0.11v-0.09c-1.24,0.37,0.7,0.77-2.97,0.93l-2.44-0.21l-3.69,0.11
											c-2.47-0.16-1.25-0.25-1.25-0.29c-5.97,0.09-14.43-0.25-21.76-0.37l7.8,1.14c-6.14-0.32-17.31-0.91-18.48-0.57l-3.75-0.38
											c-12.44-0.75-8.53,0.25-13.47,0.02l-6.24-0.41l6.13,0.03c-6.17-0.22-8.65-0.36-13.58-0.63l-0.05,0.01
											c0.34,0.02,0.56,0.04,0.61,0.06l-0.85,0.01c-0.7,0.19-3.86,0.31-8.15,0.27c-6.1-0.09-10.83,0.17-20.56-0.32l-2.38,0.37
											l-7.27-0.32l-0.01-0.31c7.08,0.12,20.44,0.11,29.63,0.13l0.13-0.14c-5.45-0.03-11.6,0.07-15.19,0.01
											c-1.58-0.07-5.33-0.37-3.78-0.57l-2.56,0.21c-18.23-0.16-17.3-0.19-36.96-0.98l1.7,0.19c-3.92,0.01-7.94,0.04-9.06-0.24
											c-6.16-0.1-12.67-0.19-18.99-0.16h-1.18c-0.39,0-0.81,0-1.02,0c-0.52,0-1.04-0.01-1.55-0.01
											c-1.01-0.01-2.06-0.04-3.02-0.06c-1.98-0.06-3.85-0.15-5.51-0.26l-1.41,0.36c-2.19-0.03-5.68-0.64-6.82-0.14l-5.18,0.09
											c-3.41-0.07-5.5,0.11-9.67-0.13l0,0c-0.01,0-0.02,0-0.02,0c-0.26-0.02-0.53-0.03-0.79-0.05c0,0.01,0.03,0.02,0.05,0.03
											c-4.21-0.09-4.19,0-4.29,0.08c-0.13,0.09-0.31,0.13-5.35,0.09c-3.29-0.21-3.7,0.56-7.15,0.56
											c-1.35-0.15-2.67-0.31-3.96-0.47c-3.33-0.12-5.25-0.06-7.66,0.03c-2.43,0.09-5.3,0.2-10.87,0.15
											c-0.71-0.03-1.38-0.07-2-0.1c-0.74-0.03-1.44-0.07-2.04-0.11c-1.22-0.07-2.14-0.15-2.72-0.24
											c-1.17-0.18-1.05-0.39,1.15-0.61c-3.05,0.27-3.56,0.37-4.42,0.43c-0.81,0.06-2.02,0.1-5.2,0.31
											c-1.17-0.17-0.54-0.23,0.78-0.45c-3.09-0.04-3.73,0.03-4.34,0.12c-0.56,0.09-0.99,0.2-2.76,0.24
											c-0.69,0.39-1.49,1.02-2.57,1.05c0.45,0.04,0.9,0.07,1.38,0.1c-0.9,0.06-1.79,0.11-2.69,0.15
											c-1.05,0.03-2.28,0.05-3.46,0.06c-2.4,0.02-4.91-0.02-7.53-0.13l0.16-0.19l-5.54,0.06l-0.39-0.24l-8.03,0.03l1.12,0.07
											c-1.89,0.02-8.13,0.07-11.8-0.05l0.09-0.13c-5.2-0.21-9.96-0.16-14.92-0.01c-1.24,0.04-2.49,0.08-3.76,0.13
											c-1.19,0.05-2.4,0.09-3.64,0.14c-2.26,0.09-4.69,0.15-7.38,0.17l1.3-0.28c-3.74-0.26-0.81,0.43-5.3,0.3l-0.31-0.34
											c-3.83,0.43-5.14-0.12-7.94-0.3l1.37,0.45l-5.34-0.14c-6-0.2-3.78-0.59-2.91-0.81l-4.1,0.32l-0.89-0.4
											c-1.53,0.22-2.2,0.2-3.49,0.15c-1.23-0.05-2.83-0.12-5.7,0.03c-0.56-0.14,0.88-0.24-1.15-0.28
											c-3.1,0.22-5.9,0.46-8.56,0.69c1.61-0.11,3.31-0.23,5.06-0.34l-0.28,0.58c-5.19,0.53-7.27,0.07-10.67,0.28l2.31-0.2
											c-2.85,0.11-4.28,0.1-5.43,0.04c-0.57-0.03-1.07-0.06-1.59-0.1c-0.26-0.02-0.54-0.04-0.84-0.06
											c-0.37-0.02-0.78-0.04-1.24-0.05c0.56,0.05,1.35,0.12,1.51,0.18c0.19,0.06,0.15,0.12-1.18,0.16
											c-1.9,0.03-1.09-0.2-2.92-0.27c-0.32,0.38-4.83,0.58-9.04,0.42c0.03-0.05,0.1-0.11,0.35-0.14
											c-1.04,0.06-1.54,0.17-3.42,0.08l0.91-0.43l-3.37,0.42c-2.41-0.1-5.69,0.23-5.52-0.05l1.3-0.1
											c-5.96,0.01-11.89,0.04-17.78,0.08l-0.44-0.33c-1.48,0.49-9.7-0.05-8.77,0.52c-3.51-0.27-12.85,0.41-11.32-0.27
											c-11.62,0.12-16.83,0.86-30.61,0.58c-5-0.54-18.22-0.38-27.17-0.5c-8.86,0.07-16.16,0.13-23.5,0.19
											c-7.74,0.09-15.33,0.25-24.29,0.45c-11.33-0.64-26.35,0.63-37.22,0.09l-0.73,0.07l-0.85,0.07l-1.7,0.14
											c-4.23-0.27-9.49-0.23-14.93-0.15c-5.46,0.08-11.17,0.2-16.69,0.04c-2.55,0.18-3.87,0.24-4.47,0.26
											c0.49,0.01,1.26,0.06,1.61,0.25c-1.01-0.03-2.3-0.02-3.59-0.01l-3.24-0.05l-1.57-0.02c-0.31-0.04-0.48-0.09-0.44-0.16
											l0.73-0.05c0.21-0.39-8.86,0.28-12.14-0.07l0.68,0.15c-5.5-0.06-11.01-0.12-16.58-0.17c-7.9-0.06-15.89-0.11-23.95-0.11
											c-4.03,0-8.09,0.01-12.16,0.02c-3.54,0.01-7.06-0.01-10.71-0.07c-13.57-0.38-28.98-0.77-46.16-1
											c-4.12-0.05-8.28-0.1-12.47-0.14c-4.13-0.05-8.3-0.11-12.49-0.19c-8.39-0.15-16.88-0.34-25.42-0.6
											C16.09-5.36,10.6-5.5,3.07-5.62c-1.89-0.02-3.9-0.05-6-0.08c-1.08-0.01-2.18-0.02-3.31-0.03c-1.34-0.01-2.68-0.02-4-0.01
											c-5.3,0.01-10.38,0.11-14.83,0.2c-4.48,0.09-8.4,0.16-11.69,0.15c-0.45,0-0.73,0-1.32-0.01
											c-0.54-0.01-1.07-0.01-1.59-0.02c-1.05-0.01-2.09-0.02-3.1-0.03c-2.02-0.02-3.96-0.04-5.77-0.06
											c-7.26-0.07-12.59-0.1-14.08-0.07l7.84,0.6C-67.32-5.07-76.66-5.27-85.5-5.44c-8.85-0.17-17.24-0.32-28.1-0.29l1.2-0.09
											c-3.16-0.16-4.95,0.88-39.87-0.93V-6.8c-1.11-0.01-1.2,0.07-3.05-0.04l5.46,0.34c-3.62,0.07-6.78,0.25-11.6,0.21
											c-1.02-0.07-1.37-0.17-1.47-0.25l-11.83-0.1L-178.38-7c-3.62,0.11-1.97,0.78-11.64,0.28c3.64,0.5-4.8,0.2-3.61,0.44
											c-0.49-0.06-1.6-0.16-2.49-0.25c-5.75-0.03-16.58-0.07-19.26,0.12c0,0,22.5,1.28,28.55,1.85c-8.1-0.24-2.14,0.02-0.54,0.2
											l0.54-0.1c4.85,0.18,4.85,0.46,7.27,0.58c0-0.02-0.07-0.05-0.14-0.08l-0.31,0.03c-0.23-0.05-0.09-0.09,0.17-0.11
											c-0.06-0.06,0.17-0.11,1.49-0.07l-0.25,0.03c2.03-0.01,5.53,0.08,7.05,0.13l0.03,0.24c3.6-0.4,24.16,1.04,28.99,1.13
											c4.85,0.37,10.87,0.09,16.92,0.33c7.05,0.16,6.38,0.31,7.4,0.48c-1.27,0.02-2.55,0.05-3.84,0.08
											c-4.32,0.11-8.9,0.21-14.25,0.31l1.15-0.11c-1.58-0.05-2.69,0.19-7.96,0.25c-2.65,0.03-6.33,0-11.73-0.17
											c-1.35-0.04-2.81-0.09-4.38-0.15c-0.81-0.03-1.65-0.06-2.52-0.09c-1.02-0.03-2.09-0.07-3.17-0.1
											c-4.34-0.13-9.16-0.21-14.11-0.29l-0.03-0.05c-1.18,0.03-1.28,0.1-3.13,0.06l6.03,0.16c-4.06,0.18-7.29,0.48-12,0.57
											c-1.03-0.04-1.4-0.14-1.54-0.21c-3.92,0.06-6.63,0.07-10.52,0l-3.49-0.4c-1.87,0.03-2.5,0.21-3.87,0.31
											c-1.46,0.1-3.51,0.09-9.34-0.22c2.17,0.27,0.72,0.3-1.11,0.31c-1.83,0-4.15,0-3.38,0.12c-0.61-0.06-2.06-0.15-3.27-0.23
											c-0.94,0.01-2.04,0.03-3.18,0.05c-1.18,0.04-2.44,0.06-3.71,0.12c-2.55,0.11-4.96,0.27-6.62,0.39
											c-1.66,0.12-2.66,0.19-3.53,0.25c-0.86,0.06-1.63,0.09-2.1,0.15c0,0,0.24,0.02,0.67,0.05
											C-242.66-0.58-242.06-0.53-241.3-0.5z M-72.17,10.07c0.36-0.07,0.95-0.13,1.95-0.17l0.87,0.07
											C-70.56,10-71.54,10.03-72.17,10.07z M-45.6,9.89l-2.39-0.35c1.55,0.08,3.4,0.18,5.33,0.28
											C-43.32,9.89-44.2,9.92-45.6,9.89z M730.86,21.59c-0.13,0-0.26,0-0.38-0.01C731.57,21.46,732.45,21.35,730.86,21.59z
											 M782.63,4.48c2.3-0.08,4.26-0.2,5.21-0.19c0.8-0.02,1.59-0.02,2.35-0.01c-0.09,0.13-0.46,0.25-1.52,0.35l-2.06-0.13
											l-2.78,0.22C781.96,4.64,782.54,4.53,782.63,4.48z M717.15,4.68c-1.77,0.06-3.38,0.11-4.61,0.12
											c-0.24-0.01-0.55-0.02-0.88-0.04C713.5,4.74,715.33,4.71,717.15,4.68z M724.54,4.6l0.01-0.05
											c4.87-0.1,9.71-0.2,14.44-0.28c3.25-0.06,6.44-0.09,9.41-0.1c1.5-0.01,3.04,0,4.55,0.01s3.03,0.02,4.55,0.05l-1.09-0.17
											c6.11,0.06,13.95,0,18.77,0.37c2.16,0.16,4.56,0.14,6.72,0.08c-4.57,0.22-10.91,0.14-16.38,0.17l6.76,0.96
											c-5.04-0.16-14.08-0.55-14.86-0.2l-3.11-0.32c-10.04-0.59-6.7,0.35-10.78,0.19l-5.28-0.32l5.04-0.06
											c-5.16-0.13-7.26-0.22-11.41-0.4l-0.04,0.01c0.29,0.01,0.48,0.03,0.53,0.05l-0.69,0.02c-0.46,0.2-2.96,0.39-6.41,0.44
											c-4.91,0.04-8.54,0.42-16.42,0.14l-1.52,0.39c-0.73-0.11-1.1-0.22-0.42-0.31l-2.34,0.2c-1.14-0.02-2.19-0.03-3.19-0.05
											l-0.14-0.3C706.73,5.1,717.14,4.77,724.54,4.6z M680.46,4.43c0.57,0.02,1.17,0.04,1.75,0.06
											c-0.77-0.02-1.6-0.03-2.48-0.05C681.22,4.31,682.64,4.19,680.46,4.43z M670.51,4.35c0-0.02,0.05-0.05,0.31-0.09
											c2.75,0.03,5.5,0.08,8.24,0.13c-0.08,0.01-0.12,0.01-0.19,0.02c-0.39-0.01-0.75-0.02-1.17-0.02l0.72,0.08
											c-1.15,0.14-0.59,0.11,0.36,0.04l0.35,0.04c-3.12,0.1-6.27,0.21-7.3-0.04c-1.55,0.01-3.1,0.01-4.65,0.02
											C668.31,4.45,669.41,4.39,670.51,4.35z M654.88,4.53c-0.72-0.01-1.41-0.03-2.09-0.05C653.63,4.46,654.42,4.46,654.88,4.53
											z M675.79,21.74c3.43,0.11,6.88,0.22,10.56,0.29c-0.37,0.03-0.74,0.07-1.12,0.11c-8.87-0.25-19.05-0.29-30.21-0.43
											c-1.96-0.02-3.96-0.05-5.96-0.07C659.93,21.24,667.77,21.49,675.79,21.74z M650.41,21.57l-1.33,0.07
											c-1.07-0.01-2.13-0.03-3.21-0.04l-0.52-0.13L650.41,21.57z M561.85,21.02c0.4,0.04,0.82,0.06,1.24,0.09l-1.45-0.01
											c-2.35-0.02-4.67-0.02-6.99-0.03C556.94,21.05,559.32,21.03,561.85,21.02z M224.55,7.8l-0.04,0.04
											c-2.88-0.05-5.82-0.1-8.88-0.13c-1.9-0.02-3.8-0.04-5.69-0.05C214.46,7.54,219.36,7.55,224.55,7.8z M133.1,7.09
											c3.51,0.08,5.67-0.1,9.66,0.17l0,0c0.01,0,0.02,0,0.02,0c0.24,0.02,0.5,0.04,0.75,0.05c0-0.01-0.02-0.02-0.04-0.03
											c7.95,0.28-0.08-0.33,9.02,0.01c2.92,0.31,3.23-0.42,7.67-0.27l4.45,0.6c0.13,0.01,0.25,0.01,0.38,0.02
											c-3.57-0.01-7.11-0.02-10.63-0.06c-7.71-0.07-15.54-0.25-23.94-0.44c-0.15,0-0.31-0.01-0.46-0.01L133.1,7.09z"/>
										<path class="st4" d="M201.38,7.92l-0.59,0.06C201.06,7.96,201.24,7.94,201.38,7.92z"/>
										<path class="st4" d="M36.43,1.81l0.18-0.01C36.54,1.64,36.29,1.7,36.43,1.81z"/>
										<path class="st4" d="M80.66,6.18c-1.21,0.01-2.25,0.03-3,0.09C81.01,6.29,81.15,6.24,80.66,6.18z"/>
										<path class="st4" d="M14.29,1.81c-1.11-0.05-2.25-0.14-3.47-0.17c-2.14,0.02-1.27,0.1-0.01,0.2
											c1.05-0.02,1.93-0.03,2.53-0.02C13.94,1.81,14.29,1.81,14.29,1.81z"/>
										<path class="st4" d="M18.41,3.97l-0.55,0.12C18.86,4.08,18.83,4.03,18.41,3.97z"/>
										<path class="st4" d="M42.78,7.6l-0.65-0.04C42.38,7.58,42.59,7.59,42.78,7.6z"/>
										<path class="st4" d="M36.96,7.99h0.19C37.13,7.82,36.85,7.88,36.96,7.99z"/>
										<path class="st4" d="M11.58,7.95c-1.65-0.04-1.02,0.07-0.05,0.19c1.68,0.01,2.86,0.01,2.86,0.01
											C13.46,8.11,12.53,8.01,11.58,7.95z"/>
										<path class="st4" d="M669.82,4.37c0,0-0.1,0-0.18,0.01c0.15,0.02,0.3,0.03,0.45,0.05L669.82,4.37z"/>
										<path class="st4" d="M668.69,4.46c0.04,0.01,0.12,0.02,0.31,0.04C668.93,4.48,668.82,4.47,668.69,4.46z"/>
										<path class="st4" d="M667.46,4.4c0.04,0.02,0.07,0.04,0.12,0.05c0.04,0,0.08,0,0.1,0l-0.11-0.05
											c0.4,0.02,0.82,0.03,1.13,0.06c-0.14-0.04,0.63-0.08,0.95-0.09c-1.01-0.11-2.02-0.13-3.04-0.08
											C666.61,4.35,667,4.37,667.46,4.4z"/>
										<path class="st4" d="M868.94,4.36l-0.56,0.18c0.35-0.04,0.59-0.08,0.73-0.12C869.07,4.4,869.01,4.38,868.94,4.36z"/>
										<path class="st4" d="M860.63,7.81l-0.17,0.01C860.6,7.98,860.81,7.9,860.63,7.81z"/>
										<path class="st4" d="M882.07,5.81c1.26-0.11,0.67-0.16-0.2-0.19c-1.28,0.15-2.17,0.25-2.17,0.25
											C880.47,5.83,881.3,5.84,882.07,5.81z"/>
										<path class="st4" d="M874.04,4.21l0.25-0.17C873.56,4.15,873.64,4.19,874.04,4.21z"/>
										<path class="st4" d="M693.27,5.05l0.48-0.06C693.54,5.01,693.39,5.03,693.27,5.05z"/>
										<path class="st4" d="M862.33,1.76h-0.19C862.2,1.92,862.46,1.86,862.33,1.76z"/>
										<path class="st4" d="M887.23,1.35c1.66-0.03,0.98-0.11-0.04-0.2c-1.68,0.06-2.92,0.1-2.92,0.1
											C885.26,1.27,886.25,1.34,887.23,1.35z"/>
										<path class="st4" d="M830.17,4.47l-0.68,0.12c0.35,0,0.59-0.01,0.75-0.04C830.24,4.53,830.21,4.5,830.17,4.47z"/>
										<path class="st4" d="M706.19,4.33l-0.03,0.24l5.26-0.27c0.03-0.02,0.12-0.05,0.12-0.07
											C710.75,4.18,708.72,4.23,706.19,4.33z"/>
										<path class="st4" d="M735.95,4.24c0.09,0,0.18,0,0.26,0l-1.08-0.21L735.95,4.24z"/>
										<path class="st4" d="M834.85,4.85l0.39-0.13C834.47,4.75,834.51,4.79,834.85,4.85z"/>
									</g>
								</g>
							</g>
						</g>
					</g>
				</g>
			</g>
		</g>
	</g>
</g>
</svg>
